<?xml version="1.0" encoding="UTF-8"?>
<svg version="1.1" xmlns="http://www.w3.org/2000/svg" width="740" height="740">
<path d="M0 0 C6.30895787 3.09262641 9.94176889 7.97145227 13.5625 13.875 C19.78291562 23.96589646 27.42176397 30.96889667 37.1875 37.5625 C63.90727239 55.84228265 77.64520558 76.41107003 85.1875 107.5625 C93.34604779 93.7215171 93.34604779 93.7215171 94.71484375 78.265625 C94.45380859 77.42257813 94.45380859 77.42257813 94.1875 76.5625 C94.8475 76.5625 95.5075 76.5625 96.1875 76.5625 C96.1875 71.2825 96.1875 66.0025 96.1875 60.5625 C95.5275 60.2325 94.8675 59.9025 94.1875 59.5625 C94.1875 58.5725 94.1875 57.5825 94.1875 56.5625 C94.8475 56.5625 95.5075 56.5625 96.1875 56.5625 C96.290625 55.469375 96.39375 54.37625 96.5 53.25 C97.1875 49.5625 97.1875 49.5625 98.4375 47.625 C100.87186987 46.14698972 102.37035045 46.24671333 105.1875 46.5625 C109.80695127 49.97209499 113.50774524 54.50074101 116.1875 59.5625 C116.8475 60.2225 117.5075 60.8825 118.1875 61.5625 C127.18810071 76.56350119 134.57700602 93.18921246 137.1875 110.5625 C137.38085938 111.80773437 137.38085938 111.80773437 137.578125 113.078125 C139.06920878 124.92831711 138.66252811 136.89451035 136.1875 148.5625 C140.09427741 148.07069917 142.84960128 147.52157871 146 145.125 C146.58394531 144.69316406 147.16789063 144.26132813 147.76953125 143.81640625 C149.32559317 142.59779388 149.32559317 142.59779388 150.1875 140.5625 C150.80625 140.294375 151.425 140.02625 152.0625 139.75 C154.84126824 138.19715892 155.67328308 136.31562167 157.1875 133.5625 C157.8475 132.9025 158.5075 132.2425 159.1875 131.5625 C163.49429651 126.77017737 165.71891239 121.36587976 168.27539062 115.53710938 C168.60861328 114.79912109 168.94183594 114.06113281 169.28515625 113.30078125 C169.57914307 112.63087158 169.87312988 111.96096191 170.17602539 111.27075195 C171.1875 109.5625 171.1875 109.5625 174.1875 107.5625 C176.1875 107.5625 176.1875 107.5625 178.1875 108.5625 C186.24095112 121.68664256 182.5790431 140.9984913 179.34375 155.16796875 C178.265804 159.48983558 176.87198674 163.57711382 174.921875 167.58984375 C174.02493452 169.99917856 174.06333508 172.0126846 174.1875 174.5625 C173.1975 174.8925 172.2075 175.2225 171.1875 175.5625 C170.8575 176.2225 170.5275 176.8825 170.1875 177.5625 C171.93160156 177.51416016 171.93160156 177.51416016 173.7109375 177.46484375 C195.02571526 177.49763572 212.96537166 190.68112151 227.93359375 204.49609375 C229.93370394 206.32981695 231.97524752 208.07977023 234.0625 209.8125 C236.82300203 212.15376691 238.97594605 214.68747986 241.1875 217.5625 C242.074375 218.408125 242.96125 219.25375 243.875 220.125 C247.1875 223.61655405 247.1875 223.61655405 247.1875 226.5625 C246.125 229.25 246.125 229.25 244.1875 231.5625 C241 232.375 241 232.375 238.1875 232.5625 C238.1875 231.9025 238.1875 231.2425 238.1875 230.5625 C237.39085937 230.42972656 236.59421875 230.29695312 235.7734375 230.16015625 C233.6484375 229.80598958 231.5234375 229.45182292 229.3984375 229.09765625 C228.33882812 228.92105469 227.27921875 228.74445313 226.1875 228.5625 C225.25550781 228.37816406 224.32351563 228.19382812 223.36328125 228.00390625 C219.22519483 227.42874787 215.17209765 227.41719782 211 227.4375 C210.19369141 227.43363281 209.38738281 227.42976562 208.55664062 227.42578125 C207.78126953 227.42707031 207.00589844 227.42835938 206.20703125 227.4296875 C205.50682861 227.43081543 204.80662598 227.43194336 204.08520508 227.43310547 C201.96242484 227.4981032 201.96242484 227.4981032 199.1875 228.5625 C197.18788436 228.60170815 195.18700636 228.60693347 193.1875 228.5625 C196.18039615 232.72307911 199.25254148 236.68757101 202.75 240.4375 C206.73116701 244.82134229 210.08976527 249.54715601 213.5 254.375 C226.22364535 272.36368969 226.22364535 272.36368969 245.1875 282.5625 C251.63283692 283.03993236 258.36931878 283.32820107 264.625 281.5 C268.9750483 280.35525045 271.79662838 280.77841578 276.1875 281.5625 C277.62547977 294.21672202 268.44755516 305.48954028 261.0625 314.875 C258.59460702 317.95243281 256.1141218 320.90911053 253.1875 323.5625 C252.5275 323.5625 251.8675 323.5625 251.1875 323.5625 C251.1875 324.2225 251.1875 324.8825 251.1875 325.5625 C249.13958255 327.2468818 247.10221635 328.79064903 244.9375 330.3125 C244.3086792 330.75770996 243.6798584 331.20291992 243.03198242 331.66162109 C228.74807025 341.5625 228.74807025 341.5625 222.1875 341.5625 C223.34460671 345.32191969 223.34460671 345.32191969 226.1875 347.875 C228.15025128 348.67085992 228.15025128 348.67085992 230.1875 348.5625 C230.1875 349.5525 230.1875 350.5425 230.1875 351.5625 C232.17648862 352.26133384 234.18080175 352.91627514 236.1875 353.5625 C236.88359375 353.82675781 237.5796875 354.09101563 238.296875 354.36328125 C245.89610964 356.91652728 253.18061994 356.75952924 261.10180664 356.45166016 C261.98731201 356.4263623 262.87281738 356.40106445 263.78515625 356.375 C264.98410522 356.32279297 264.98410522 356.32279297 266.20727539 356.26953125 C267.18748657 356.41455078 267.18748657 356.41455078 268.1875 356.5625 C270.1875 359.5625 270.1875 359.5625 270.0625 361.875 C268.94147211 365.3181571 267.35754723 367.65006819 265.1875 370.5625 C264.74921875 371.15933594 264.3109375 371.75617188 263.859375 372.37109375 C251.65978123 387.68220007 232.71159466 395.33217484 214.1875 399.5625 C213.8575 401.2125 213.5275 402.8625 213.1875 404.5625 C214.1775 404.8925 215.1675 405.2225 216.1875 405.5625 C225.27516815 414.86462639 233.75185926 430.49327765 234.1875 443.5625 C232.75 446.0625 232.75 446.0625 231.1875 447.5625 C223.75300218 447.06686681 223.75300218 447.06686681 220.875 444.5 C220.318125 443.860625 219.76125 443.22125 219.1875 442.5625 C218.1975 442.5625 217.2075 442.5625 216.1875 442.5625 C216.1875 441.9025 216.1875 441.2425 216.1875 440.5625 C207.05720027 438.65822892 198.46895408 438.33426752 189.1875 438.5625 C188.8575 439.5525 188.5275 440.5425 188.1875 441.5625 C192.09039746 445.46539746 197.46737835 447.35932772 202.625 449.125 C203.800625 449.599375 204.97625 450.07375 206.1875 450.5625 C207.1875 453.5625 207.1875 453.5625 206.25 456.3125 C200.85471687 464.81415826 192.53604011 469.28998986 183.1875 472.5625 C180.7948786 472.87943791 178.39879174 473.17125761 176 473.4375 C171.59037551 474.26491298 169.13779571 475.15997986 166.5390625 478.7734375 C164.8260697 481.50199276 163.2924931 484.31917868 161.74609375 487.14453125 C153.10942633 502.75630968 136.14388562 519.75477497 118.94140625 524.94921875 C113.68555008 526.36798109 108.66299016 527.5625 103.1875 527.5625 C102.75050781 528.43032104 102.75050781 528.43032104 102.3046875 529.31567383 C94.26276224 545.20195345 85.30573391 558.58738973 73.57666016 571.94384766 C72.65856126 573.01361842 71.76164569 574.10197947 70.88818359 575.20849609 C68.25898636 578.53730804 65.8454107 580.48030468 62.1875 582.5625 C60.27754352 584.23165967 58.40508111 585.94424941 56.5625 587.6875 C50.96836484 592.90806159 45.16368722 597.78155022 39.1875 602.5625 C38.06844186 603.47326019 36.94998112 604.38475476 35.83203125 605.296875 C21.96302655 616.56626786 7.79225813 627.7811152 -7.8125 636.5625 C-8.88113281 637.17609375 -9.94976562 637.7896875 -11.05078125 638.421875 C-24.0730494 645.45119622 -37.78569932 648.53853238 -52.4375 650 C-53.33726562 650.09321533 -54.23703125 650.18643066 -55.1640625 650.2824707 C-61.11456709 650.76672401 -66.07362571 650.11757976 -71.8125 648.5625 C-73.71902344 648.13710937 -73.71902344 648.13710937 -75.6640625 647.703125 C-102.06753697 641.47124904 -124.2683341 627.64205418 -145.24609375 610.76953125 C-146.81291179 609.48242029 -146.81291179 609.48242029 -148.8125 608.5625 C-148.78929687 609.33851563 -148.76609375 610.11453125 -148.7421875 610.9140625 C-148.37791725 632.71823912 -148.37791725 632.71823912 -153.8125 641.5625 C-157 642.4375 -157 642.4375 -159.8125 642.5625 C-168.66115031 632.28026947 -166.99724032 613.28905561 -166.8125 600.5625 C-167.4725 600.2325 -168.1325 599.9025 -168.8125 599.5625 C-168.1525 599.5625 -167.4925 599.5625 -166.8125 599.5625 C-169.01511664 591.76862575 -174.8127959 587.65813909 -180.8125 582.5625 C-182.25190205 581.31469072 -183.68964968 580.06496785 -185.125 578.8125 C-185.75019531 578.26722656 -186.37539062 577.72195313 -187.01953125 577.16015625 C-189.7492624 574.72778144 -192.32085369 572.24101979 -194.8125 569.5625 C-194.8125 568.9025 -194.8125 568.2425 -194.8125 567.5625 C-195.4725 567.5625 -196.1325 567.5625 -196.8125 567.5625 C-198.63096414 565.49674886 -200.32557128 563.42838572 -202 561.25 C-202.49467773 560.6113501 -202.98935547 559.9727002 -203.49902344 559.31469727 C-208.35753309 552.96900193 -213.18872594 546.5302344 -216.23046875 539.09765625 C-217.80904826 535.42512551 -219.18665096 532.58726768 -221.8125 529.5625 C-225.89322779 528.03060431 -229.59743948 527.40833216 -233.90625 526.96875 C-241.75343649 526.1526426 -247.74965768 523.49838748 -253.8125 518.5625 C-254.68648437 517.86511719 -255.56046875 517.16773438 -256.4609375 516.44921875 C-261.41630226 512.45226981 -266.13987909 508.4491157 -270.47265625 503.77734375 C-271.75800667 502.33859843 -271.75800667 502.33859843 -273.8125 502.5625 C-274.16248047 501.51255859 -274.16248047 501.51255859 -274.51953125 500.44140625 C-276.04946818 497.03486994 -278.16292679 494.37107486 -280.5 491.5 C-286.43984837 483.97583402 -291.92192163 476.44176443 -294.125 467 C-294.89299877 464.45097625 -294.89299877 464.45097625 -296.8125 462.5625 C-300.42737799 461.51828629 -303.80354708 460.95944739 -307.52905273 460.54516602 C-314.58807304 459.75768585 -320.29485923 457.70421197 -326.7734375 454.8671875 C-329.15684803 453.84397527 -331.28441667 453.07309811 -333.8125 452.5625 C-333.8125 451.9025 -333.8125 451.2425 -333.8125 450.5625 C-334.6478125 450.2221875 -334.6478125 450.2221875 -335.5 449.875 C-338.6480962 448.0882427 -340.60775985 446.46015848 -342.8125 443.5625 C-342.9410806 440.67479411 -342.44301833 438.42408318 -341.8125 435.5625 C-340.97847656 435.27117187 -340.14445312 434.97984375 -339.28515625 434.6796875 C-328.81404215 430.93337013 -328.81404215 430.93337013 -319.8125 424.5625 C-319.03615444 422.46883496 -319.03615444 422.46883496 -318.8125 420.5625 C-319.946875 420.42972656 -321.08125 420.29695313 -322.25 420.16015625 C-323.77083519 419.98178669 -325.29166842 419.80340038 -326.8125 419.625 C-327.55628906 419.53798828 -328.30007813 419.45097656 -329.06640625 419.36132812 C-333.98471292 418.78396169 -338.89934772 418.18222716 -343.8125 417.5625 C-343.8125 416.9025 -343.8125 416.2425 -343.8125 415.5625 C-344.66972656 415.11519531 -345.52695312 414.66789062 -346.41015625 414.20703125 C-356.89939978 408.66085852 -356.89939978 408.66085852 -360.8125 405.75 C-363.62469025 403.46707025 -363.62469025 403.46707025 -366.625 402.625 C-368.8125 401.5625 -368.8125 401.5625 -369.9375 398.5 C-370.370625 397.0459375 -370.370625 397.0459375 -370.8125 395.5625 C-371.8025 395.2325 -372.7925 394.9025 -373.8125 394.5625 C-373.8125 393.5725 -373.8125 392.5825 -373.8125 391.5625 C-374.8025 390.9025 -375.7925 390.2425 -376.8125 389.5625 C-376.8125 388.5725 -376.8125 387.5825 -376.8125 386.5625 C-377.163125 385.964375 -377.51375 385.36625 -377.875 384.75 C-379.15820023 381.75586613 -378.52029023 379.67677701 -377.8125 376.5625 C-373.53771678 375.70754336 -370.01977818 375.57950084 -365.6875 376.125 C-354.33766384 377.29267862 -343.75360354 374.86819964 -334.640625 367.90234375 C-332.98855193 366.50468993 -331.39334099 365.04024267 -329.8125 363.5625 C-330.1425 361.9125 -330.4725 360.2625 -330.8125 358.5625 C-346.49860807 354.707645 -360.95450746 352.80085325 -376.75 357.421875 C-377.760625 357.71578125 -378.77125 358.0096875 -379.8125 358.3125 C-380.823125 358.61671875 -381.83375 358.9209375 -382.875 359.234375 C-385.8125 359.5625 -385.8125 359.5625 -388.6875 358.578125 C-390.8125 356.5625 -390.8125 356.5625 -391.28515625 353.296875 C-389.35474805 338.04505486 -378.3686511 324.90270149 -368.8125 313.5625 C-368.13960937 312.70140625 -367.46671875 311.8403125 -366.7734375 310.953125 C-361.59540543 304.64046438 -354.53755552 299.15283873 -347.8125 294.5625 C-347.1525 294.5625 -346.4925 294.5625 -345.8125 294.5625 C-345.4825 293.9025 -345.1525 293.2425 -344.8125 292.5625 C-343.8225 291.9025 -342.8325 291.2425 -341.8125 290.5625 C-341.8125 289.9025 -341.8125 289.2425 -341.8125 288.5625 C-343.07941507 287.88841692 -344.35120749 287.22349503 -345.625 286.5625 C-346.33269531 286.19125 -347.04039062 285.82 -347.76953125 285.4375 C-349.90170729 284.36564642 -349.90170729 284.36564642 -352.8125 284.5625 C-352.90015625 283.97339844 -352.9878125 283.38429688 -353.078125 282.77734375 C-354.00982192 279.96738548 -355.28038292 278.9824374 -357.5625 277.125 C-358.28953125 276.51527344 -359.0165625 275.90554688 -359.765625 275.27734375 C-360.44109375 274.71144531 -361.1165625 274.14554687 -361.8125 273.5625 C-365.76865731 269.80415055 -369.34971624 265.74769705 -372.9453125 261.6484375 C-374.7033429 259.61827093 -374.7033429 259.61827093 -376.35546875 258.13671875 C-378.35755193 255.97361012 -379.60323862 253.59004395 -381 251 C-381.52980469 250.02933594 -382.05960937 249.05867187 -382.60546875 248.05859375 C-383.8125 245.5625 -383.8125 245.5625 -383.8125 243.5625 C-384.4725 243.2325 -385.1325 242.9025 -385.8125 242.5625 C-386.8828125 240.27734375 -386.8828125 240.27734375 -387.9375 237.5 C-388.46730469 236.12134766 -388.46730469 236.12134766 -389.0078125 234.71484375 C-389.40613281 233.64943359 -389.40613281 233.64943359 -389.8125 232.5625 C-390.4725 232.5625 -391.1325 232.5625 -391.8125 232.5625 C-391.8125 231.9025 -391.8125 231.2425 -391.8125 230.5625 C-392.4725 230.2325 -393.1325 229.9025 -393.8125 229.5625 C-392.8225 228.5725 -392.8225 228.5725 -391.8125 227.5625 C-392.59514362 225.08014563 -393.38805277 222.60193904 -394.1875 220.125 C-394.40921875 219.41794922 -394.6309375 218.71089844 -394.859375 217.98242188 C-395.45352606 216.1562811 -396.12799619 214.35672968 -396.8125 212.5625 C-397.4725 212.2325 -398.1325 211.9025 -398.8125 211.5625 C-398.626875 210.985 -398.44125 210.4075 -398.25 209.8125 C-397.75536226 207.26864875 -398.17310616 206.04903161 -398.8125 203.5625 C-399.04040662 199.30824307 -399.14844576 196.21241525 -396.8125 192.5625 C-390.33491181 193.01135462 -385.53980007 195.44454712 -379.8125 198.375 C-366.54848643 204.91449405 -352.07783243 210.34607617 -337.03515625 207.875 C-334.15411043 207.46993205 -331.27954872 207.3490508 -328.375 207.1875 C-322.71371003 206.78500736 -318.08830798 205.61917091 -312.8125 203.5625 C-313.1425 203.2325 -313.4725 202.9025 -313.8125 202.5625 C-314.1425 201.5725 -314.4725 200.5825 -314.8125 199.5625 C-316.06546875 199.36914062 -317.3184375 199.17578125 -318.609375 198.9765625 C-320.2604718 198.71388801 -321.91151049 198.45084802 -323.5625 198.1875 C-324.3875 198.06117188 -325.2125 197.93484375 -326.0625 197.8046875 C-326.86171875 197.67578125 -327.6609375 197.546875 -328.484375 197.4140625 C-329.58410645 197.24124756 -329.58410645 197.24124756 -330.70605469 197.06494141 C-333.02028102 196.51293888 -334.80009714 195.8362907 -336.8125 194.5625 C-337.1425 193.5725 -337.4725 192.5825 -337.8125 191.5625 C-322.04410417 175.28544624 -306.95548454 169.59138493 -284.8125 166.5625 C-285.57892822 165.9274353 -285.57892822 165.9274353 -286.36083984 165.27954102 C-305.37644953 149.35695418 -323.65877091 122.75408839 -326.12109375 97.3828125 C-326.18014614 94.70808646 -326.22653193 92.20556427 -325.8125 89.5625 C-323.8125 87.5625 -323.8125 87.5625 -321.3125 87.0625 C-316.90547574 87.69207489 -314.30764602 89.5978367 -310.59765625 91.96484375 C-296.06184606 100.30305745 -278.61273761 100.13942031 -262.77587891 96.11914062 C-256.63549297 94.3782702 -250.72443501 91.9478847 -244.8125 89.5625 C-231.05244911 84.07048405 -220.52628866 82.2584263 -205.8125 82.5625 C-206.11542969 82.00304687 -206.41835937 81.44359375 -206.73046875 80.8671875 C-210.03111623 74.55025602 -212.46799689 68.12290193 -214.69921875 61.37109375 C-215.4994559 58.44123311 -215.4994559 58.44123311 -217.8125 57.5625 C-217.8125 56.9025 -217.8125 56.2425 -217.8125 55.5625 C-217.1525 55.5625 -216.4925 55.5625 -215.8125 55.5625 C-216.01746094 54.46292969 -216.22242188 53.36335938 -216.43359375 52.23046875 C-220.91464205 27.83487881 -220.91464205 27.83487881 -217.8125 19.5625 C-216 17.5 -216 17.5 -213.8125 16.5625 C-209.28848197 16.90011329 -207.36561005 18.56588297 -204.3125 21.8125 C-203.53261719 22.62589844 -202.75273437 23.43929687 -201.94921875 24.27734375 C-201.24410156 25.03144531 -200.53898438 25.78554688 -199.8125 26.5625 C-194.26647736 32.36647718 -189.58036966 35.43014362 -181.8125 37.5625 C-181.4825 38.2225 -181.1525 38.8825 -180.8125 39.5625 C-171.20231059 43.63722031 -162.14661936 44.77779415 -151.8125 44.5625 C-152.1425 45.2225 -152.4725 45.8825 -152.8125 46.5625 C-148.93647123 47.42502919 -145.05870606 48.27922451 -141.17919922 49.12597656 C-139.21616834 49.55621672 -137.25455433 49.99290515 -135.29296875 50.4296875 C-134.04902344 50.70039062 -132.80507813 50.97109375 -131.5234375 51.25 C-130.38181152 51.50136719 -129.24018555 51.75273438 -128.06396484 52.01171875 C-124.9088858 52.54617275 -122.00501777 52.66398401 -118.8125 52.5625 C-118.8125 53.2225 -118.8125 53.8825 -118.8125 54.5625 C-115.8425 55.2225 -112.8725 55.8825 -109.8125 56.5625 C-110.1425 55.5725 -110.4725 54.5825 -110.8125 53.5625 C-111.4725 53.2325 -112.1325 52.9025 -112.8125 52.5625 C-113.8189275 50.89970673 -114.81835407 49.23266516 -115.8125 47.5625 C-117.46339794 45.71349431 -118.5944772 44.6715114 -120.8125 43.5625 C-120.8125 42.9025 -120.8125 42.2425 -120.8125 41.5625 C-122.76122877 39.9606038 -124.70527939 38.46913524 -126.75 37 C-132.77489407 32.60010593 -132.77489407 32.60010593 -133.8125 31.5625 C-133.5625 28.125 -133.5625 28.125 -132.8125 24.5625 C-128.33735782 21.57907188 -124.08214749 22.22279082 -118.8125 22.25 C-117.19794922 22.25519653 -117.19794922 22.25519653 -115.55078125 22.26049805 C-106.52180504 22.38137413 -97.89349827 23.40935653 -89.04394531 25.13476562 C-86.73977809 25.57643969 -84.431108 25.97227719 -82.1171875 26.359375 C-80.64045984 26.61362593 -79.16388958 26.8687932 -77.6875 27.125 C-77.00558594 27.23948486 -76.32367188 27.35396973 -75.62109375 27.47192383 C-74.00446904 27.76831903 -72.40523383 28.15688378 -70.8125 28.5625 C-70.4825 29.2225 -70.1525 29.8825 -69.8125 30.5625 C-68.02937886 31.10791958 -68.02937886 31.10791958 -65.875 31.4375 C-61.32383122 32.34773376 -57.24686048 33.8639198 -52.9765625 35.66015625 C-51.28341634 36.36614319 -49.55280035 36.98239988 -47.8125 37.5625 C-46.12241574 38.86602244 -44.46081914 40.20655031 -42.8125 41.5625 C-40.24424281 43.52011762 -37.65104213 45.44431437 -35.0625 47.375 C-33.63125569 48.44887933 -32.20026431 49.52309586 -30.76953125 50.59765625 C-28.52436102 52.28298908 -26.27382108 53.95843276 -24.01171875 55.62109375 C-18.99750916 59.37092579 -14.47463784 63.44021717 -10.8125 68.5625 C-10.8125 69.2225 -10.8125 69.8825 -10.8125 70.5625 C-10.1525 70.5625 -9.4925 70.5625 -8.8125 70.5625 C-8.96460938 69.46421875 -9.11671875 68.3659375 -9.2734375 67.234375 C-11.06205401 52.81167935 -10.98244654 38.12561964 -10.5625 23.625 C-10.53623535 22.45936523 -10.5099707 21.29373047 -10.48291016 20.09277344 C-9.9987808 6.88541838 -9.9987808 6.88541838 -6.8125 1.5625 C-4.12583925 -0.19837034 -3.23718108 -0.5035615 0 0 Z M136.1875 149.5625 C136.5175 150.2225 136.8475 150.8825 137.1875 151.5625 C137.5175 150.9025 137.8475 150.2425 138.1875 149.5625 C137.5275 149.5625 136.8675 149.5625 136.1875 149.5625 Z M-312.8125 199.5625 C-312.4825 200.2225 -312.1525 200.8825 -311.8125 201.5625 C-310.8225 201.2325 -309.8325 200.9025 -308.8125 200.5625 C-310.1325 200.2325 -311.4525 199.9025 -312.8125 199.5625 Z M-327.8125 359.5625 C-326.8125 361.5625 -326.8125 361.5625 -326.8125 361.5625 Z " fill="#0C100A" transform="translate(433.8125,36.4375)"/>
<path d="M0 0 C0.99 0.495 0.99 0.495 2 1 C0.4634766 21.84651231 -1.89351354 39.84253532 -16.59375 55.9140625 C-18.26489786 57.90046484 -18.26489786 57.90046484 -17.71875 60.2734375 C-17.36296875 61.12808594 -17.36296875 61.12808594 -17 62 C-3.00059712 61.74419696 8.44012077 58.32273857 19 49 C20.32497733 47.98895458 21.65599167 46.98560611 23 46 C23.32871094 47.25103516 23.32871094 47.25103516 23.6640625 48.52734375 C25.66439818 55.62609596 27.74237008 62.59391935 33 68 C35.59058368 69.25291602 35.59058368 69.25291602 38 70 C38.20302734 68.29457031 38.20302734 68.29457031 38.41015625 66.5546875 C40.58748513 50.21582661 47.52370449 38.319864 56.546875 24.8125 C58.63199029 21.6547685 60.39168719 18.43106733 62 15 C62.33 15 62.66 15 63 15 C63.12375 15.8971875 63.2475 16.794375 63.375 17.71875 C65.92257118 33.13155567 72.53067649 45.79353166 83.109375 57.29296875 C89.05754094 63.77299624 92.48501468 68.49707431 92.171875 77.578125 C91.87721578 81.73014133 91.48332921 85.86580908 91 90 C92.73575649 90.87436418 92.73575649 90.87436418 95 91 C99.821829 88.16897324 101.85248021 84.24430824 104.1875 79.375 C104.53627197 78.65497803 104.88504395 77.93495605 105.24438477 77.19311523 C110.28985891 66.45444531 110.48489381 55.68477729 111 44 C114.19610616 46.67151731 115.72969054 50.10551018 117.4375 53.8125 C117.74316895 54.4725 118.04883789 55.1325 118.36376953 55.8125 C126.5849537 74.11084314 128.66135346 92.86723079 122 112 C120.5021228 115.4412986 118.86837419 118.74565972 117 122 C124.2363339 124.13800774 129.41854394 121.0526674 136 118 C134.71617134 129.34546257 132.95868498 140.5367451 130.8125 151.75 C130.58432083 152.94789154 130.58432083 152.94789154 130.35153198 154.16998291 C120.69384199 204.60827182 106.95950771 245.70023507 65 278 C63.93712316 278.85077132 62.87601948 279.70376113 61.81640625 280.55859375 C48.87172513 290.95345207 35.37373427 300.67194548 21 309 C20.14704346 309.50225098 20.14704346 309.50225098 19.27685547 310.01464844 C2.91967477 319.5679237 -14.70695595 325.41924352 -33.75 325.3125 C-34.80767578 325.30686035 -35.86535156 325.3012207 -36.95507812 325.29541016 C-45.02568164 325.17046672 -52.26021695 324.4348839 -60 322 C-61.24265625 321.60941406 -62.4853125 321.21882813 -63.765625 320.81640625 C-96.46337393 309.82141904 -127.09391963 285.29318661 -152 262 C-153.43859375 260.66001953 -153.43859375 260.66001953 -154.90625 259.29296875 C-201.1125752 215.31047738 -207.44215876 136.98586328 -208.95581055 76.92651367 C-208.97039307 76.29076416 -208.98497559 75.65501465 -209 75 C-206.05360961 77.8961107 -203.25646978 80.81656339 -200.625 84 C-196.25435215 88.99367756 -192.34401383 92.92899292 -185.5625 93.8125 C-183.7990625 93.9053125 -183.7990625 93.9053125 -182 94 C-182.14168137 92.56208484 -182.28851043 91.1246763 -182.4375 89.6875 C-182.51871094 88.88699219 -182.59992188 88.08648437 -182.68359375 87.26171875 C-182.95265693 84.83912821 -182.95265693 84.83912821 -184 82 C-185.46904343 63.69345881 -177.58105552 49.53994302 -166.390625 35.73828125 C-164 33 -164 33 -162 32 C-161.97421875 32.78761719 -161.9484375 33.57523437 -161.921875 34.38671875 C-161.17941728 48.64528185 -157.53310626 62.14352254 -146.875 72.1875 C-145.03268341 73.95080742 -145.03268341 73.95080742 -143 75 C-140.904084 74.60654704 -140.904084 74.60654704 -139 74 C-138.96559814 73.43192627 -138.93119629 72.86385254 -138.89575195 72.27856445 C-138.14170116 60.71294507 -137.20826222 50.50710291 -132 40 C-131.60683594 39.1853125 -131.21367187 38.370625 -130.80859375 37.53125 C-125.36520364 27.03969943 -116.70004854 15.78784435 -107 9 C-106.91363281 10.19753906 -106.82726562 11.39507812 -106.73828125 12.62890625 C-104.8793557 35.27973873 -97.12655483 53.99116284 -79.65625 69.015625 C-74.88741721 72.68122035 -71.2059432 75.34477462 -65 75 C-65.03480469 74.02160156 -65.06960938 73.04320312 -65.10546875 72.03515625 C-65.30653847 62.29763689 -65.22764818 53.27023424 -58.2421875 45.74609375 C-53.37725823 41.95755127 -47.5973431 39.5763024 -42.04101562 36.96875 C-23.61362724 28.22235321 -10.43711232 17.65247937 0 0 Z " fill="#E0C3A3" transform="translate(409,339)"/>
<path d="M0 0 C0.969375 0.845625 1.93875 1.69125 2.9375 2.5625 C9.04011181 7.77413049 15.29318932 12.58560618 22 17 C44.85836093 32.09405076 58.31036949 50.89874385 65.2734375 77.20703125 C67.08368201 86.65728622 67.13252788 96.09368064 67.0625 105.6875 C67.05798828 106.87794922 67.05347656 108.06839844 67.04882812 109.29492188 C67.03717452 112.19666936 67.02081559 115.09830626 67 118 C67.75023437 117.24589844 68.50046875 116.49179688 69.2734375 115.71484375 C70.78331575 114.21145495 72.30142294 112.71574672 73.8515625 111.25390625 C90.76416243 95.1236072 100.39298731 75.51658255 106 53 C109.35135629 56.73151014 110.55844216 61.00607187 112.0625 65.6875 C112.31837891 66.45255859 112.57425781 67.21761719 112.83789062 68.00585938 C121.31983785 93.88779089 116.41148243 118.21642961 107 143 C124.97393478 138.62739364 139.87547444 132.05203292 154.90234375 121.22265625 C158 119 158 119 160 118 C158.35581716 134.44182842 148.52702192 147.12666153 139 160 C139.87624023 159.97905273 140.75248047 159.95810547 141.65527344 159.93652344 C144.96544302 159.86757975 148.2748293 159.81783436 151.58544922 159.78027344 C153.00712262 159.76038989 154.42871683 159.73327273 155.85009766 159.69824219 C174.14139393 159.25935434 190.35945533 165.52260255 204 178 C204 178.33 204 178.66 204 179 C203.4423999 179.03963867 202.8847998 179.07927734 202.31030273 179.12011719 C184.10488704 180.47406901 166.49568201 183.75215899 150 192 C150 192.66 150 193.32 150 194 C150.79921875 194.25652344 151.5984375 194.51304687 152.421875 194.77734375 C161.2482535 197.8541447 167.84587603 201.92261828 175 208 C176.04220703 208.87205078 176.04220703 208.87205078 177.10546875 209.76171875 C182.41509015 214.63343323 186.28610539 220.52192381 190.35180664 226.42089844 C196.4938486 235.28250278 203.31411778 243.42409066 211 251 C212.09441406 252.12921875 212.09441406 252.12921875 213.2109375 253.28125 C217.55828581 257.7384591 221.85853895 261.49943078 227 265 C227 265.33 227 265.66 227 266 C209.70660703 266.44278958 198.38506114 263.66664724 185.68994141 251.65576172 C181.21252724 247.31406709 177.02352221 242.76563853 173 238 C162.00005487 225.16673068 152.55038053 216.83430359 136 212 C136.45890625 212.94359375 136.9178125 213.8871875 137.390625 214.859375 C145.00565072 230.70792677 148.93684182 245.40193431 150 263 C147.48322976 260.49221823 144.97723658 257.97659636 142.5 255.4296875 C141.675 254.58664062 140.85 253.74359375 140 252.875 C139.175 252.02679688 138.35 251.17859375 137.5 250.3046875 C135.12282598 248.1132302 132.82835751 246.54549535 130 245 C129.93268677 245.95869995 129.93268677 245.95869995 129.86401367 246.93676758 C129.64974199 249.89627851 129.41869744 252.85426502 129.1875 255.8125 C129.11724609 256.81732422 129.04699219 257.82214844 128.97460938 258.85742188 C128.20252052 268.46220728 126.07723626 277.26306517 122 286 C121.67 286 121.34 286 121 286 C120.97421875 284.86046875 120.9484375 283.7209375 120.921875 282.546875 C119.99912328 253.56999387 112.56462425 223.16334095 93 201 C92.28972656 200.15824219 91.57945312 199.31648437 90.84765625 198.44921875 C81.90657695 188.09390898 72.27499218 181.65993876 60 176 C61.45988456 173.08023088 63.74035232 172.63811065 66.69921875 171.61328125 C78.31328892 168.51751042 88.97389781 174.69334288 99 180 C98.2368139 178.39218107 97.46412942 176.78886862 96.6875 175.1875 C96.25824219 174.29417969 95.82898438 173.40085938 95.38671875 172.48046875 C94.11021226 170.19714024 92.8456512 168.80235146 91 167 C91 166.34 91 165.68 91 165 C90.40445312 164.72800781 89.80890625 164.45601562 89.1953125 164.17578125 C87.05332541 163.0285604 85.62459823 161.8535747 83.875 160.1875 C72.51916546 150.28134647 58.45818925 148.56584007 44 148 C44.01571045 147.31075439 44.0314209 146.62150879 44.04760742 145.91137695 C44.5911944 128.90255466 44.5911944 128.90255466 41.65625 112.2578125 C41 110 41 110 41 107 C38.35849176 109.36263934 36.92281064 111.79531792 35.3125 114.9375 C29.72327421 125.37255701 23.19516878 134.46274614 15 143 C14.40316406 143.63679687 13.80632812 144.27359375 13.19140625 144.9296875 C8.83899346 149.45298024 4.02563435 153.25071723 -1 157 C-2.09597985 153.71206046 -1.96832584 151.57001453 -1.8125 148.125 C-1.70196702 128.2069578 -13.9713327 111.0930332 -27.1171875 97.19140625 C-29 95 -29 95 -30.0078125 92.83984375 C-31.29616407 90.45081388 -32.56832974 90.1414855 -35 89 C-37.46406208 86.86699388 -39.8092937 84.63117099 -42.171875 82.38671875 C-45.56871302 79.5200502 -49.18507377 77.26384814 -53 75 C-52.88406494 75.80630859 -52.76812988 76.61261719 -52.64868164 77.44335938 C-52.11920401 81.12879889 -51.5908428 84.81439764 -51.0625 88.5 C-50.88009766 89.7684375 -50.69769531 91.036875 -50.50976562 92.34375 C-49.61986023 98.55690768 -48.74752316 104.76801743 -48 111 C-48.94875 110.175 -49.8975 109.35 -50.875 108.5 C-52.24876948 107.33188463 -53.62388863 106.16535557 -55 105 C-55.72574219 104.37351562 -56.45148438 103.74703125 -57.19921875 103.1015625 C-75.96908737 87.40312693 -102.33245563 76.27819744 -127.06640625 76.6640625 C-129.23315722 76.84940198 -129.23315722 76.84940198 -131 79 C-130.32195312 79.49886719 -129.64390625 79.99773437 -128.9453125 80.51171875 C-118.05145191 88.91598516 -108.62765841 99.80803259 -104 113 C-104.33 113.99 -104.66 114.98 -105 116 C-105.52207031 115.68546875 -106.04414063 115.3709375 -106.58203125 115.046875 C-118.75097903 107.97140974 -131.04583561 104.75285956 -145 104 C-145.91394531 103.93425781 -146.82789063 103.86851562 -147.76953125 103.80078125 C-154.20704795 103.53967917 -159.9006742 104.55026775 -166.125 106 C-182.21210321 109.64519606 -195.53985944 108.50959326 -211 103 C-212.3917923 102.51783992 -213.78371788 102.03606439 -215.17578125 101.5546875 C-218.46396615 100.4054386 -221.73571734 99.21569956 -225 98 C-220.38414414 114.76284495 -209.58669384 126.15581989 -195 135 C-185.41448647 140.38695566 -175.87809166 144.18383165 -165 146 C-167.59394628 148.59394628 -169.64042347 148.84452667 -173.1953125 149.734375 C-174.46076904 150.05776855 -175.72622559 150.38116211 -177.0300293 150.71435547 C-178.03348892 150.96738434 -178.03348892 150.96738434 -179.05722046 151.2255249 C-207.81912149 158.52074209 -240.16496889 169.70871689 -257.625 195.625 C-258.305625 196.800625 -258.305625 196.800625 -259 198 C-257.7315625 197.49339844 -257.7315625 197.49339844 -256.4375 196.9765625 C-244.32546841 192.2143319 -233.59434207 189.95460594 -220.625 189.8125 C-219.92246094 189.79944824 -219.21992188 189.78639648 -218.49609375 189.77294922 C-214.76966114 189.76664239 -213.18236117 189.87842588 -210 192 C-210.59425781 192.41507813 -211.18851563 192.83015625 -211.80078125 193.2578125 C-227.02625781 204.57628496 -238.08029221 221.87060508 -241.6875 240.5625 C-241.8421875 241.7690625 -241.8421875 241.7690625 -242 243 C-242.33 243 -242.66 243 -243 243 C-245.33447255 234.32910197 -245.19865739 225.89543642 -245 217 C-245.85980469 217.39832031 -246.71960938 217.79664063 -247.60546875 218.20703125 C-270.82644165 228.6146865 -291.82731783 228.17053169 -315.4375 219.25 C-317.29486225 218.50794914 -319.15034974 217.76107026 -321 217 C-313.96362035 232.45319345 -305.70883463 244.44644464 -290 252 C-286.03551 253.36347192 -282.13797633 254.34065212 -278 255 C-278 255.66 -278 256.32 -278 257 C-279.2719019 258.03135308 -280.59546473 258.99922235 -281.9375 259.9375 C-293.57803857 268.75941759 -301.09755027 281.44616838 -306 295 C-307.2684375 294.84273438 -308.536875 294.68546875 -309.84375 294.5234375 C-331.16355091 292.18325623 -347.91014927 295.25888949 -366.70703125 305.328125 C-369.2472514 306.61782159 -371.22715076 307.52505353 -374 308 C-371.90223136 302.01550267 -368.07946857 297.7643978 -364 293 C-363.23042969 292.10087891 -363.23042969 292.10087891 -362.4453125 291.18359375 C-352.21399316 280.18360016 -338.52960611 272.74483533 -325.5546875 265.53125 C-324.75772461 265.0878125 -323.96076172 264.644375 -323.13964844 264.1875 C-321.38896309 263.21587362 -319.63618372 262.2480211 -317.8828125 261.28125 C-317.26148438 260.8584375 -316.64015625 260.435625 -316 260 C-316 259.34 -316 258.68 -316 258 C-316.79881592 257.62415771 -316.79881592 257.62415771 -317.61376953 257.24072266 C-347.80937271 242.91291869 -369.7552012 224.11197229 -383 193 C-383.39960938 192.06929687 -383.79921875 191.13859375 -384.2109375 190.1796875 C-385.11832232 187.67314923 -385.15117499 185.64556235 -385 183 C-379.37321339 184.84978459 -373.81048417 186.86114713 -368.2421875 188.87890625 C-346.34747534 196.44972841 -321.52335109 188.94304402 -300.43701172 182.03417969 C-292.76144146 179.53116881 -285.14258964 177.55986002 -277 178 C-277 177.34 -277 176.68 -277 176 C-277.58652344 175.72929687 -278.17304688 175.45859375 -278.77734375 175.1796875 C-280.98502148 174.00794994 -282.65174594 172.72859735 -284.5625 171.125 C-292.20076103 165.04793759 -300.71048699 160.1273905 -309 155 C-303.03919507 151.02613005 -295.47583489 150.85323178 -288.46606445 150.36816406 C-273.62442033 149.33331843 -256.91583197 146.66972073 -246.375 135.125 C-245.92125 134.42375 -245.4675 133.7225 -245 133 C-245.9075 133.061875 -246.815 133.12375 -247.75 133.1875 C-262.34500462 133.04184127 -277.59088945 125.35277583 -287.83984375 115.2578125 C-288.55269531 114.51273437 -289.26554687 113.76765625 -290 113 C-290.68191406 112.33742188 -291.36382812 111.67484375 -292.06640625 110.9921875 C-296.49101954 106.4376932 -299.73509796 101.41795289 -302.875 95.9375 C-303.25664307 95.2767749 -303.63828613 94.6160498 -304.03149414 93.93530273 C-306.54505592 89.37336051 -307.92059132 85.0959452 -309 80 C-308.40316406 80.144375 -307.80632812 80.28875 -307.19140625 80.4375 C-281.00187451 86.04120367 -257.19328449 77.11176092 -232.98242188 68.05981445 C-214.33322669 61.43275516 -193.83792521 67.34471815 -176.40625 74.73828125 C-171.94078198 76.39234796 -167.74228378 76.97768337 -163 77 C-163.82242188 76.38253906 -164.64484375 75.76507813 -165.4921875 75.12890625 C-186.43945183 59.29549844 -200.84671438 42.24654788 -206 16 C-206 15.34 -206 14.68 -206 14 C-203.54186687 15.18922151 -201.16792276 16.46709561 -198.78515625 17.8046875 C-185.89331438 25.03206418 -173.62968159 28.13706711 -159.07739258 30.43945312 C-132.72984942 34.71701087 -107.09954974 45.52994854 -85.5390625 61.25 C-83.05362189 63.13657032 -83.05362189 63.13657032 -80 64 C-85.00114584 42.5615217 -95.85199396 24.6370071 -110 8 C-107.15329306 6.57664653 -105.48251109 7.36533849 -102.390625 8.0390625 C-101.25004639 8.2870459 -100.10946777 8.5350293 -98.93432617 8.79052734 C-97.11058472 9.20359131 -97.11058472 9.20359131 -95.25 9.625 C-94.01677002 9.90424316 -92.78354004 10.18348633 -91.51293945 10.47119141 C-66.66278148 16.23197699 -48.42181707 27.62524891 -30 45 C-29.38769531 45.57105469 -28.77539062 46.14210937 -28.14453125 46.73046875 C-15.4563791 58.95406613 -5.24399415 74.20970251 4.9609375 88.49609375 C5.83564697 89.71897095 5.83564697 89.71897095 6.72802734 90.96655273 C8 93 8 93 8 95 C8.66 95 9.32 95 10 95 C7.82327676 71.31267246 5.21647327 47.78039499 1.5090332 24.28100586 C0.58115239 18.30029114 -0.12024353 12.62557017 -0.0625 6.5625 C-0.05347656 5.32628906 -0.04445313 4.09007813 -0.03515625 2.81640625 C-0.01775391 1.42228516 -0.01775391 1.42228516 0 0 Z " fill="#2C4B3D" transform="translate(439,67)"/>
<path d="M0 0 C4.15997163 0.83199433 6.57660373 2.31619516 9.125 5.625 C16.18553935 19.19566032 17.60420162 36.03344735 13.21875 50.7734375 C6.7350124 67.67746768 -9.65529622 91.28355685 -26.2734375 99.86328125 C-31.3840222 102.09628448 -35.24228466 102.80447377 -40.875 102.625 C-38.43405249 86.18701085 -38.43405249 86.18701085 -34.81640625 82.5625 C-32.5 81.4375 -32.5 81.4375 -30.125 80.546875 C-25.25692801 78.55231773 -22.61094981 73.89387898 -20.0625 69.5 C-17.78422078 63.98416609 -16.63635061 58.09439236 -18.69921875 52.31640625 C-20.02010121 49.32600692 -21.40450776 46.41991663 -23.0703125 43.60546875 C-24.11609455 41.03162653 -23.89332184 40.20567864 -22.875 37.625 C-21.70208624 35.33235951 -20.50040212 33.14522927 -19.1875 30.9375 C-18.86072266 30.34388672 -18.53394531 29.75027344 -18.19726562 29.13867188 C-16.2662797 25.90067062 -15.30147012 24.74168059 -11.60546875 23.73046875 C-10.25388672 23.67826172 -10.25388672 23.67826172 -8.875 23.625 C-3.87147965 29.46244041 -2.67074936 33.88087945 -2.21875 41.41796875 C-2.06568947 43.82755156 -2.06568947 43.82755156 0.125 45.625 C3.61878695 36.82814358 4.49058232 28.63791535 1.125 19.625 C-1.26962108 15.24862354 -3.40543626 12.85978187 -7.875 10.625 C-7.27225939 5.3510197 -5.50936386 1.1976878 0 0 Z " fill="#E0C6A8" transform="translate(581.875,442.375)"/>
<path d="M0 0 C3.625 0.4375 3.625 0.4375 6.0625 2.5625 C7.92661765 5.99247647 8.42400935 7.60225514 7.625 11.4375 C6.16282741 12.67222352 4.69333905 13.90151858 3.16015625 15.046875 C-0.34197204 18.21928638 -1.13382872 22.4753781 -1.69140625 27.01171875 C-2.00053921 34.00211257 -0.53724205 40.18226208 2.625 46.4375 C3.285 46.7675 3.945 47.0975 4.625 47.4375 C4.72296875 46.36371094 4.8209375 45.28992188 4.921875 44.18359375 C5.07207486 42.74730755 5.22316414 41.31111417 5.375 39.875 C5.436875 39.17052734 5.49875 38.46605469 5.5625 37.74023438 C6.15048057 32.42391005 7.72060245 28.929871 10.625 24.4375 C12.8671875 24.1796875 12.8671875 24.1796875 15.625 24.4375 C20.24043363 28.24142882 24.80336356 33.71235691 26.625 39.4375 C25.76463328 41.96069085 24.68308383 44.31327691 23.5546875 46.7265625 C20.3218654 53.88666479 19.05031673 60.47398223 21.47265625 68.109375 C24.20020793 74.21169401 28.0170548 78.7797226 33.625 82.4375 C35.40970703 83.00597656 35.40970703 83.00597656 37.23046875 83.5859375 C40.625 85.4375 40.625 85.4375 41.56152344 87.2668457 C42.21122662 89.54616155 42.66947872 91.78796128 43.0625 94.125 C43.22169922 94.92228516 43.38089844 95.71957031 43.54492188 96.54101562 C43.93228466 98.50130606 44.28235725 100.46890038 44.625 102.4375 C34.48287452 102.86281494 27.23321925 98.98474537 19.5625 92.375 C6.20013958 79.56851377 -11.33294079 60.18939127 -12.53613281 40.84716797 C-12.58187952 37.66883535 -12.6102841 34.49113446 -12.625 31.3125 C-12.645625 30.22195313 -12.66625 29.13140625 -12.6875 28.0078125 C-12.73346207 18.40174036 -11.34573573 10.14167514 -5.375 2.4375 C-3.375 0.4375 -3.375 0.4375 0 0 Z " fill="#E2C8AB" transform="translate(161.375,443.5625)"/>
<path d="M0 0 C1.04220703 -0.01836914 1.04220703 -0.01836914 2.10546875 -0.03710938 C6.50192393 -0.04952874 10.04209235 0.56841593 14.125 2.1875 C14.125 2.8475 14.125 3.5075 14.125 4.1875 C13.45855469 4.26226562 12.79210937 4.33703125 12.10546875 4.4140625 C0.76514024 6.03184363 -7.32184196 10.60246273 -14.79296875 19.27734375 C-16.67434395 21.9070333 -18.08009277 24.52228864 -19.48022461 27.42822266 C-23.30599551 35.21755485 -27.44919271 38.20416537 -35.23876953 41.86450195 C-50.35599944 49.03524278 -62.93185372 62.60066225 -70.875 77.1875 C-71.535 77.1875 -72.195 77.1875 -72.875 77.1875 C-70.02177335 58.90829188 -64.01056228 43.14314267 -51.04296875 29.48046875 C-49.14160231 27.46947397 -47.42146875 25.40326598 -45.6875 23.25 C-34.1273043 10.1519801 -17.75691719 0.01629075 0 0 Z " fill="#2C4D3F" transform="translate(323.875,219.8125)"/>
<path d="M0 0 C0.33 0 0.66 0 1 0 C2.01445821 21.19090477 -4.26194884 39.74502822 -15.5546875 57.640625 C-19.88626203 64.71162774 -23.42980962 71.83501002 -25 80 C-25.33 80 -25.66 80 -26 80 C-29.99869566 63.02462339 -30.19469835 45.50587898 -21.34375 30.12109375 C-19.33683152 26.99591349 -17.19267737 23.99513525 -15 21 C-13.88691636 19.4526168 -12.77502441 17.90437597 -11.6640625 16.35546875 C-8.88898377 12.49335641 -6.09736214 8.6437187 -3.29345703 4.80249023 C-2.16176388 3.2254252 -1.07672774 1.61509161 0 0 Z " fill="#2D4E40" transform="translate(352,268)"/>
<path d="M0 0 C6.44273726 -0.55125025 10.26279387 3.01557622 15 7 C23.17035779 15.25709195 25.40340578 25.02481526 25.5625 36.3125 C25.45599199 49.89885384 21.3742288 61.13670571 13 72 C12.01 72.495 12.01 72.495 11 73 C11.01571045 72.18023682 11.0314209 71.36047363 11.04760742 70.51586914 C11.42295681 47.936307 11.12891778 26.21860609 0.25 5.69921875 C-1 3 -1 3 0 0 Z " fill="#2C4D3E" transform="translate(451,244)"/>
<path d="M0 0 C0 0.66 0 1.32 0 2 C-2.31 2.66 -4.62 3.32 -7 4 C-7 4.66 -7 5.32 -7 6 C-5.90751953 6.18369141 -5.90751953 6.18369141 -4.79296875 6.37109375 C6.75372009 8.97111739 16.07273356 17.65550901 24 26 C23.67 26.66 23.34 27.32 23 28 C22.26910156 27.18208984 22.26910156 27.18208984 21.5234375 26.34765625 C12.74027552 17.00556578 2.2290611 10.0293911 -10 6 C-9.67 5.01 -9.34 4.02 -9 3 C-2.88888889 0 -2.88888889 0 0 0 Z " fill="#060704" transform="translate(598,255)"/>
<path d="M0 0 C0.94101563 0.25265625 1.88203125 0.5053125 2.8515625 0.765625 C5.39533336 1.7579319 6.64192863 2.67961944 8.375 4.75 C6.7919423 9.0242558 3.86931596 11.01531794 0.375 13.75 C-0.285 13.42 -0.945 13.09 -1.625 12.75 C-0.944375 12.0075 -0.26375 11.265 0.4375 10.5 C1.076875 9.5925 1.71625 8.685 2.375 7.75 C2.045 6.43 1.715 5.11 1.375 3.75 C-4.565 2.265 -4.565 2.265 -10.625 0.75 C-10.625 0.42 -10.625 0.09 -10.625 -0.25 C-6.63307731 -1.3241901 -3.96466931 -1.11403931 0 0 Z M4.375 4.75 C5.375 6.75 5.375 6.75 5.375 6.75 Z " fill="#121610" transform="translate(101.625,391.25)"/>
<path d="M0 0 C8.04668271 4.18174062 15.53175737 8.86476859 23 14 C23 12.02 23 10.04 23 8 C23.66 8.33 24.32 8.66 25 9 C25.59355614 11.64860427 25.74209269 14.29197322 26 17 C22.89136905 16.37957178 20.70306891 15.34688178 18.06640625 13.6015625 C17.33486328 13.12203125 16.60332031 12.6425 15.84960938 12.1484375 C15.09486328 11.64570312 14.34011719 11.14296875 13.5625 10.625 C12.06426313 9.6373211 10.56557652 8.65032403 9.06640625 7.6640625 C8.36531738 7.1990332 7.66422852 6.73400391 6.94189453 6.25488281 C5.31761761 5.2052495 3.64580802 4.22966171 1.96484375 3.2734375 C1.31644531 2.85320312 0.66804688 2.43296875 0 2 C0 1.34 0 0.68 0 0 Z " fill="#060704" transform="translate(333,114)"/>
<path d="M0 0 C0.33 0 0.66 0 1 0 C2.02379878 6.13418935 2.31607673 12.22844151 2.5625 18.4375 C2.62727539 19.96407227 2.62727539 19.96407227 2.69335938 21.52148438 C2.79868582 24.01421028 2.90081672 26.50702338 3 29 C2.01 29.33 1.02 29.66 0 30 C0 20.1 0 10.2 0 0 Z " fill="#060805" transform="translate(506,155)"/>
<path d="M0 0 C2.49118953 3.7367843 2.2065226 5.74451819 2.125 10.1875 C2.10695312 11.45980469 2.08890625 12.73210937 2.0703125 14.04296875 C2.03550781 15.50669922 2.03550781 15.50669922 2 17 C1.34 17 0.68 17 0 17 C0 18.98 0 20.96 0 23 C-0.33 23 -0.66 23 -1 23 C-1.02902429 19.72918529 -1.04680684 16.4584037 -1.0625 13.1875 C-1.07087891 12.25873047 -1.07925781 11.32996094 -1.08789062 10.37304688 C-1.09111328 9.48037109 -1.09433594 8.58769531 -1.09765625 7.66796875 C-1.10289307 6.84578857 -1.10812988 6.0236084 -1.11352539 5.17651367 C-1 3 -1 3 0 0 Z " fill="#1D1E16" transform="translate(199,413)"/>
<path d="M0 0 C0.66 0.33 1.32 0.66 2 1 C1.72235319 4.60539119 1.42548304 8.20894591 1.125 11.8125 C1.04636719 12.83666016 0.96773438 13.86082031 0.88671875 14.91601562 C0.80292969 15.89892578 0.71914063 16.88183594 0.6328125 17.89453125 C0.55949707 18.80050049 0.48618164 19.70646973 0.41064453 20.63989258 C0 23 0 23 -2 26 C-2 20.06 -2 14.12 -2 8 C-2.99 8.66 -3.98 9.32 -5 10 C-3.66511872 6.40608886 -2.03977277 3.24509304 0 0 Z " fill="#F2ECDA" transform="translate(409,339)"/>
<path d="M0 0 C0.33 0.66 0.66 1.32 1 2 C0.10931284 4.63077135 -0.83777847 7.17769062 -1.875 9.75 C-3.78167732 14.50363386 -5.37104607 18.87160642 -6 24 C-6.33 24 -6.66 24 -7 24 C-8.0024305 18.65370398 -7.84888195 14.37625234 -7 9 C-5.68 8.67 -4.36 8.34 -3 8 C-2.690625 6.865625 -2.38125 5.73125 -2.0625 4.5625 C-1 1 -1 1 0 0 Z " fill="#315545" transform="translate(203,286)"/>
<path d="M0 0 C0 3 0 3 -3 8 C3.6 8.33 10.2 8.66 17 9 C17 9.33 17 9.66 17 10 C8.98603754 10.6466598 1.04212755 11.16677223 -7 11 C-5.5140084 6.40693504 -3.14985318 3.56430755 0 0 Z " fill="#030301" transform="translate(585,216)"/>
<path d="M0 0 C2.858827 3.36184641 4.21618816 6.79750241 5.6875 10.9375 C6.34298828 12.74541016 6.34298828 12.74541016 7.01171875 14.58984375 C7.89339528 17.6321505 8.21979066 19.86946823 8 23 C5.97146134 19.95719201 5.04537075 17.4043351 3.9375 13.9375 C2.67152532 9.88586713 2.67152532 9.88586713 1 6 C0.01 8.64 -0.98 11.28 -2 14 C-3.21065165 10.36804504 -2.62784815 8.93468371 -1.5625 5.3125 C-1.27503906 4.31863281 -0.98757813 3.32476562 -0.69140625 2.30078125 C-0.46324219 1.54152344 -0.23507812 0.78226562 0 0 Z " fill="#365C4B" transform="translate(545,120)"/>
<path d="M0 0 C0.33 0 0.66 0 1 0 C2.33257403 16.70842825 2.33257403 16.70842825 1 25 C3.31 25 5.62 25 8 25 C8 25.33 8 25.66 8 26 C5.03 26.33 2.06 26.66 -1 27 C-0.67 18.09 -0.34 9.18 0 0 Z " fill="#345A49" transform="translate(484,188)"/>
<path d="M0 0 C2.48478521 2.48478521 3.72090272 3.98745013 5.25 7 C5.60578125 7.680625 5.9615625 8.36125 6.328125 9.0625 C7 11 7 11 6 14 C5.01 12.02 4.02 10.04 3 8 C2.34 11.63 1.68 15.26 1 19 C0.67 19 0.34 19 0 19 C0 12.73 0 6.46 0 0 Z " fill="#E2DBC8" transform="translate(520,383)"/>
<path d="M0 0 C0.33 0 0.66 0 1 0 C0.48202981 5.33645599 -0.78333535 9.22033005 -3.25 14.0625 C-3.83265625 15.22910156 -4.4153125 16.39570313 -5.015625 17.59765625 C-7.08072659 21.13841114 -9.29604188 23.93706813 -12 27 C-12 24.16032769 -11.59732819 21.76264289 -11 19 C-10.34 19.33 -9.68 19.66 -9 20 C-7.86988348 17.7941576 -6.74584212 15.58554973 -5.625 13.375 C-5.30789063 12.75753906 -4.99078125 12.14007813 -4.6640625 11.50390625 C-2.76407197 7.74350833 -1.23211496 4.04482184 0 0 Z " fill="#F1E8D4" transform="translate(406,366)"/>
<path d="M0 0 C7.48291572 6.15034169 7.48291572 6.15034169 10 10 C6.90837736 8.61410019 5.50816459 7.50816459 3 5 C2.67 8.96 2.34 12.92 2 17 C-0.49118953 13.2632157 -0.2065226 11.25548181 -0.125 6.8125 C-0.10695313 5.54019531 -0.08890625 4.26789063 -0.0703125 2.95703125 C-0.04710937 1.98121094 -0.02390625 1.00539063 0 0 Z " fill="#345847" transform="translate(439,67)"/>
<path d="M0 0 C0.33 0 0.66 0 1 0 C1.08733513 3.08315385 1.14050127 6.16598827 1.1875 9.25 C1.21263672 10.12269531 1.23777344 10.99539063 1.26367188 11.89453125 C1.27333984 12.73886719 1.28300781 13.58320313 1.29296875 14.453125 C1.3086792 15.22817383 1.32438965 16.00322266 1.34057617 16.80175781 C1 19 1 19 -2 23 C-2 16.4 -2 9.8 -2 3 C-1.34 3 -0.68 3 0 3 C0 2.01 0 1.02 0 0 Z " fill="#1A1B14" transform="translate(148,461)"/>
<path d="M0 0 C1.1171875 3.71875 1.1171875 3.71875 0.0625 6.25 C-0.4634375 7.11625 -0.4634375 7.11625 -1 8 C-1 6.35 -1 4.7 -1 3 C-1.56847656 3.28875 -2.13695312 3.5775 -2.72265625 3.875 C-7.65504825 6.24650066 -11.40669988 7.67119601 -17 7 C-17.99 6.34 -18.98 5.68 -20 5 C-19.67 3.68 -19.34 2.36 -19 1 C-18.67 1.99 -18.34 2.98 -18 4 C-10.95188357 6.03612253 -6.28987948 3.28711604 0 0 Z " fill="#F0E8D4" transform="translate(544,457)"/>
<path d="M0 0 C0.66 0.33 1.32 0.66 2 1 C1.44854729 6.23880078 0.57077907 10.97350697 -1 16 C-1.99 16 -2.98 16 -4 16 C-3.52546129 13.51986371 -3.04561015 11.04096744 -2.5625 8.5625 C-2.42779297 7.85544922 -2.29308594 7.14839844 -2.15429688 6.41992188 C-1.11328125 1.11328125 -1.11328125 1.11328125 0 0 Z " fill="#171711" transform="translate(537,504)"/>
<path d="M0 0 C11.26928675 -0.45997089 11.26928675 -0.45997089 16 2 C17.59448034 5.22194992 18.51885015 8.43949109 19 12 C18.67 12.66 18.34 13.32 18 14 C17.78988281 13.22914063 17.57976562 12.45828125 17.36328125 11.6640625 C16.2108681 8.33106091 15.15079056 5.80962957 13 3 C8.6895492 1.4292425 4.56739998 1.08693441 0 1 C0 0.67 0 0.34 0 0 Z " fill="#1C2416" transform="translate(124,496)"/>
<path d="M0 0 C1.11375 0.1546875 1.11375 0.1546875 2.25 0.3125 C1.651875 0.4775 1.05375 0.6425 0.4375 0.8125 C-2.93527798 3.12526204 -3.5831548 6.51141337 -4.75 10.3125 C-3.821875 10.745625 -3.821875 10.745625 -2.875 11.1875 C-0.75 12.3125 -0.75 12.3125 1.25 14.3125 C0.92 15.3025 0.59 16.2925 0.25 17.3125 C-0.3275 16.52875 -0.905 15.745 -1.5 14.9375 C-3.57897637 12.51202756 -4.84040333 11.45555583 -7.75 10.3125 C-7.17805721 5.30800055 -5.48471867 0.62326349 0 0 Z " fill="#F3E8D4" transform="translate(581.75,442.6875)"/>
<path d="M0 0 C1.18239258 0.00676758 1.18239258 0.00676758 2.38867188 0.01367188 C4.32164761 0.02538688 6.25458393 0.04332002 8.1875 0.0625 C8.5175 0.7225 8.8475 1.3825 9.1875 2.0625 C1.4714811 3.47972796 -6.05600887 2.71897386 -13.8125 2.0625 C-13.8125 1.7325 -13.8125 1.4025 -13.8125 1.0625 C-9.18790756 -0.11450048 -4.73383538 -0.05158412 0 0 Z " fill="#030502" transform="translate(79.8125,387.9375)"/>
<path d="M0 0 C1.71896484 0.41572266 1.71896484 0.41572266 3.47265625 0.83984375 C5.0025644 1.20589539 6.53251457 1.57177147 8.0625 1.9375 C8.81466797 2.11990234 9.56683594 2.30230469 10.34179688 2.49023438 C14.88379101 3.57166155 19.36729123 4.41552811 24 5 C23.34 6.32 22.68 7.64 22 9 C21.34 8.67 20.68 8.34 20 8 C20.33 7.34 20.66 6.68 21 6 C19.99839844 6.04125 18.99679688 6.0825 17.96484375 6.125 C13.81901142 5.99429396 10.52046226 5.20623612 6.5625 4 C5.32628906 3.62875 4.09007812 3.2575 2.81640625 2.875 C1.88699219 2.58625 0.95757812 2.2975 0 2 C0 1.34 0 0.68 0 0 Z " fill="#040402" transform="translate(170,195)"/>
<path d="M0 0 C5.41836363 4.46218182 8.53076775 10.48345475 11 17 C10.67 17.99 10.34 18.98 10 20 C7.69 18.35 5.38 16.7 3 15 C6 15 6 15 8 16 C7.50628906 15.09636719 7.01257813 14.19273437 6.50390625 13.26171875 C5.85664417 12.07038131 5.20951574 10.87897125 4.5625 9.6875 C4.23701172 9.09259766 3.91152344 8.49769531 3.57617188 7.88476562 C2.16262616 5.27626374 0.94051367 2.82154101 0 0 Z " fill="#365E4D" transform="translate(324,163)"/>
<path d="M0 0 C0.66 0.33 1.32 0.66 2 1 C4.21138855 0.91188555 6.42042185 0.7570216 8.625 0.5625 C10.40777344 0.40974609 10.40777344 0.40974609 12.2265625 0.25390625 C13.14179688 0.17011719 14.05703125 0.08632813 15 0 C14.67 0.99 14.34 1.98 14 3 C7.565 3.495 7.565 3.495 1 4 C0.34 3.01 -0.32 2.02 -1 1 C-0.67 0.67 -0.34 0.34 0 0 Z " fill="#171711" transform="translate(391,398)"/>
<path d="M0 0 C4.00717 2.39925095 4.92541081 4.78797162 6.25 9.1875 C6.75273437 10.81751953 6.75273437 10.81751953 7.265625 12.48046875 C7.50796875 13.31191406 7.7503125 14.14335938 8 15 C7.01 15.33 6.02 15.66 5 16 C4.80664062 15.39671875 4.61328125 14.7934375 4.4140625 14.171875 C4.15367187 13.37265625 3.89328125 12.5734375 3.625 11.75 C3.36976563 10.96109375 3.11453125 10.1721875 2.8515625 9.359375 C2.05887299 6.99751144 2.05887299 6.99751144 0.8984375 4.890625 C0 3 0 3 0 0 Z " fill="#161611" transform="translate(216,536)"/>
<path d="M0 0 C0.99 0 1.98 0 3 0 C3.28571429 7.42857143 3.28571429 7.42857143 1 11 C-0.65 10.67 -2.3 10.34 -4 10 C-3.67 9.01 -3.34 8.02 -3 7 C-2.01 7 -1.02 7 0 7 C0 4.69 0 2.38 0 0 Z " fill="#1A1A13" transform="translate(446,398)"/>
<path d="M0 0 C4.554787 3.80014774 8.95279259 7.65665546 13 12 C13 12.66 13 13.32 13 14 C9.09714233 12.41332422 6.66479018 9.86649519 3.75 6.875 C2.85796875 5.96492187 1.9659375 5.05484375 1.046875 4.1171875 C0.37140625 3.41851562 -0.3040625 2.71984375 -1 2 C-0.67 1.34 -0.34 0.68 0 0 Z " fill="#121A0F" transform="translate(136,188)"/>
<path d="M0 0 C0.99 0 1.98 0 3 0 C2.98839844 0.83144531 2.97679687 1.66289062 2.96484375 2.51953125 C2.95582031 3.60621094 2.94679687 4.69289063 2.9375 5.8125 C2.92589844 6.89144531 2.91429687 7.97039062 2.90234375 9.08203125 C2.86375234 12.06512169 2.86375234 12.06512169 4 15 C3.01 15 2.02 15 1 15 C-0.00109515 11.68929162 -0.10356134 8.69915231 -0.0625 5.25 C-0.05347656 4.26515625 -0.04445312 3.2803125 -0.03515625 2.265625 C-0.02355469 1.51796875 -0.01195312 0.7703125 0 0 Z " fill="#171811" transform="translate(159,468)"/>
<path d="M0 0 C6.875 3.75 6.875 3.75 8 6 C5.72942623 6.05398987 3.45848712 6.09278742 1.1875 6.125 C-0.70935547 6.15980469 -0.70935547 6.15980469 -2.64453125 6.1953125 C-6 6 -6 6 -9 4 C-3.555 3.505 -3.555 3.505 2 3 C1.34 2.67 0.68 2.34 0 2 C0 1.34 0 0.68 0 0 Z " fill="#345949" transform="translate(658,327)"/>
<path d="M0 0 C3.78248472 1.68008423 6.9692422 4.07838554 10.25 6.5625 C10.80429687 6.97435547 11.35859375 7.38621094 11.9296875 7.81054688 C13.30701175 8.84693249 14.6562923 9.92038579 16 11 C16 11.33 16 11.66 16 12 C12.625 12.125 12.625 12.125 9 12 C8.34 11.34 7.68 10.68 7 10 C7.99 9.67 8.98 9.34 10 9 C9.278125 8.43410156 8.55625 7.86820313 7.8125 7.28515625 C6.884375 6.55167969 5.95625 5.81820312 5 5.0625 C4.071875 4.33160156 3.14375 3.60070312 2.1875 2.84765625 C1.465625 2.23792969 0.74375 1.62820312 0 1 C0 0.67 0 0.34 0 0 Z " fill="#050704" transform="translate(261,133)"/>
<path d="M0 0 C0.66 0.33 1.32 0.66 2 1 C2.10655578 7.44070471 1.96205088 13.62641289 1 20 C0.67 20 0.34 20 0 20 C-1.33257403 6.3667426 -1.33257403 6.3667426 0 0 Z " fill="#171F14" transform="translate(283,646)"/>
<path d="M0 0 C3.41997495 1.4991671 5.87065088 3.49437137 8.625 6 C9.40101563 6.70125 10.17703125 7.4025 10.9765625 8.125 C12.34234404 9.39058907 13.6833613 10.6833613 15 12 C10.96443369 11.47178451 8.82287252 10.40673398 5.8125 7.6875 C4.80123047 6.79611328 4.80123047 6.79611328 3.76953125 5.88671875 C2.01054621 4.01124464 1.01114033 2.34895677 0 0 Z " fill="#131810" transform="translate(452,60)"/>
<path d="M0 0 C-2.11925604 2.11925604 -6.6196093 1.41831017 -9.5625 1.5625 C-10.36880859 1.60568359 -11.17511719 1.64886719 -12.00585938 1.69335938 C-14.00368805 1.79975262 -16.0018207 1.90040888 -18 2 C-17.67 1.01 -17.34 0.02 -17 -1 C-14.91814549 -1.22262606 -12.83439574 -1.42757926 -10.75 -1.625 C-9.58984375 -1.74101563 -8.4296875 -1.85703125 -7.234375 -1.9765625 C-4.06127909 -1.99955595 -2.61682756 -1.69705154 0 0 Z " fill="#1B1F17" transform="translate(387,685)"/>
<path d="M0 0 C0.66 0.33 1.32 0.66 2 1 C-0.11905463 3.17277714 -2.24472878 5.33826908 -4.375 7.5 C-4.97828125 8.12003906 -5.5815625 8.74007812 -6.203125 9.37890625 C-6.78320312 9.96542969 -7.36328125 10.55195313 -7.9609375 11.15625 C-8.49509277 11.70087891 -9.02924805 12.24550781 -9.57958984 12.80664062 C-11 14 -11 14 -13 14 C-11.43416404 9.96278439 -8.55826135 7.52929418 -5.375 4.75 C-4.859375 4.29109375 -4.34375 3.8321875 -3.8125 3.359375 C-2.5465398 2.23407704 -1.27392058 1.11627823 0 0 Z " fill="#335748" transform="translate(289,233)"/>
<path d="M0 0 C0 4.62 0 9.24 0 14 C-0.33 14 -0.66 14 -1 14 C-1 10.7 -1 7.4 -1 4 C-1.55429687 4.49371094 -2.10859375 4.98742187 -2.6796875 5.49609375 C-3.76636719 6.45708984 -3.76636719 6.45708984 -4.875 7.4375 C-5.95394531 8.39462891 -5.95394531 8.39462891 -7.0546875 9.37109375 C-9 11 -9 11 -11 12 C-9.52651292 8.57472113 -7.59092154 6.35044942 -4.9375 3.75 C-4.22464844 3.04359375 -3.51179688 2.3371875 -2.77734375 1.609375 C-1 0 -1 0 0 0 Z " fill="#F6F0DE" transform="translate(302,348)"/>
<path d="M0 0 C0.66 0.33 1.32 0.66 2 1 C1.5247412 2.64696604 1.04468109 4.29254728 0.5625 5.9375 C0.29566406 6.85402344 0.02882813 7.77054688 -0.24609375 8.71484375 C-1 11 -1 11 -2 12 C-2.23075082 13.34747084 -2.41153063 14.70377565 -2.5625 16.0625 C-2.706875 17.361875 -2.85125 18.66125 -3 20 C-3.33 20 -3.66 20 -4 20 C-4.38882348 13.10198348 -3.79990717 7.36870077 -1 1 C-0.67 0.67 -0.34 0.34 0 0 Z " fill="#192216" transform="translate(428,37)"/>
<path d="M0 0 C0.33 0 0.66 0 1 0 C1.33 3.96 1.66 7.92 2 12 C2.66 11.34 3.32 10.68 4 10 C3.71872579 11.48117801 3.42466268 12.95993249 3.125 14.4375 C2.96257813 15.26121094 2.80015625 16.08492188 2.6328125 16.93359375 C2.42398438 17.61550781 2.21515625 18.29742187 2 19 C1.34 19.33 0.68 19.66 0 20 C0 13.4 0 6.8 0 0 Z " fill="#385F4E" transform="translate(560,333)"/>
<path d="M0 0 C3.91025991 0.57929776 6.16056336 2.3061755 9 5 C10.8125 8.25 10.8125 8.25 12 11 C8.57472113 9.52651292 6.35044942 7.59092154 3.75 4.9375 C3.04359375 4.22464844 2.3371875 3.51179687 1.609375 2.77734375 C0 1 0 1 0 0 Z " fill="#1A1D14" transform="translate(241,607)"/>
<path d="M0 0 C0.33 0.99 0.66 1.98 1 3 C-1.97 5.97 -4.94 8.94 -8 12 C-8.99 11.34 -9.98 10.68 -11 10 C-10.45730469 9.52949219 -9.91460938 9.05898438 -9.35546875 8.57421875 C-8.64003906 7.95160156 -7.92460938 7.32898438 -7.1875 6.6875 C-6.47980469 6.07261719 -5.77210938 5.45773437 -5.04296875 4.82421875 C-3.29863261 3.26665665 -1.63221959 1.67341125 0 0 Z " fill="#161913" transform="translate(583,536)"/>
<path d="M0 0 C0.33 0.66 0.66 1.32 1 2 C-1.63516221 8.15201402 -4.89522294 13.64592545 -10 18 C-8.84338824 12.9880157 -7.70274834 10.48493962 -4 7 C-2.54299691 4.7203353 -1.28424673 2.38502965 0 0 Z " fill="#F2E7D1" transform="translate(592,496)"/>
<path d="M0 0 C-1.24669004 3.74007011 -2.68513508 4.51247157 -5.875 6.75 C-7.20144531 7.70132812 -7.20144531 7.70132812 -8.5546875 8.671875 C-9.36164062 9.11015625 -10.16859375 9.5484375 -11 10 C-11.99 9.67 -12.98 9.34 -14 9 C-11.15820812 6.67489755 -8.27173401 4.42299401 -5.3125 2.25 C-4.73113281 1.82203125 -4.14976562 1.3940625 -3.55078125 0.953125 C-2 0 -2 0 0 0 Z " fill="#141711" transform="translate(689,415)"/>
<path d="M0 0 C6.10737442 1.76463072 12.07433507 3.69557475 18 6 C14.76657799 7.08740918 13.15817088 6.94175931 10.0625 5.5625 C6.8915667 4.25856481 4.47559698 3.67416278 1 4 C0.67 2.68 0.34 1.36 0 0 Z " fill="#050604" transform="translate(118,284)"/>
<path d="M0 0 C0.33 0 0.66 0 1 0 C1.88277755 4.51815281 2.10589503 8.77512694 2.0625 13.375 C2.05347656 14.62023437 2.04445313 15.86546875 2.03515625 17.1484375 C2.02355469 18.08945312 2.01195312 19.03046875 2 20 C-1.55836697 13.43517604 -1.14684366 7.1359161 0 0 Z " fill="#050703" transform="translate(268,641)"/>
<path d="M0 0 C4.13621084 3.3810038 7.81316569 6.66590534 11 11 C7 11 7 11 5.078125 9.35546875 C4.17320312 8.28232422 4.17320312 8.28232422 3.25 7.1875 C2.63640625 6.47980469 2.0228125 5.77210938 1.390625 5.04296875 C0 3 0 3 0 0 Z " fill="#141710" transform="translate(657,237)"/>
<path d="M0 0 C0.33 0 0.66 0 1 0 C1.99250545 5.70690634 2.10477512 11.21408489 2 17 C1.34 17 0.68 17 0 17 C-0.66 15.35 -1.32 13.7 -2 12 C-1.67 12 -1.34 12 -1 12 C-0.67 8.04 -0.34 4.08 0 0 Z " fill="#040503" transform="translate(447,145)"/>
<path d="M0 0 C0.7425 0.804375 1.485 1.60875 2.25 2.4375 C4.75304829 4.76988591 5.7180955 5.63534394 9 6 C8.67 6.99 8.34 7.98 8 9 C5.6875 8.875 5.6875 8.875 3 8 C0 3.13793103 0 3.13793103 0 0 Z " fill="#191C17" transform="translate(270,670)"/>
<path d="M0 0 C0 0.33 0 0.66 0 1 C-0.90492187 1.09087891 -0.90492187 1.09087891 -1.828125 1.18359375 C-3.02695313 1.30927734 -3.02695313 1.30927734 -4.25 1.4375 C-5.03890625 1.51871094 -5.8278125 1.59992188 -6.640625 1.68359375 C-8.96126254 1.93860618 -8.96126254 1.93860618 -11 2.5625 C-13.4030817 3.08817412 -15.31752014 2.88444586 -17.75 2.5625 C-18.94882813 2.40974609 -18.94882813 2.40974609 -20.171875 2.25390625 C-20.77515625 2.17011719 -21.3784375 2.08632812 -22 2 C-22 1.67 -22 1.34 -22 1 C-19.64717188 0.63360077 -17.29359364 0.28169841 -14.9375 -0.0625 C-14.28072266 -0.16626953 -13.62394531 -0.27003906 -12.94726562 -0.37695312 C-8.314992 -1.0387065 -4.54413983 -0.8450091 0 0 Z " fill="#142011" transform="translate(103,245)"/>
<path d="M0 0 C0.99 0 1.98 0 3 0 C3 2.31 3 4.62 3 7 C3.66 7.33 4.32 7.66 5 8 C4.01 8.66 3.02 9.32 2 10 C-0.4294516 6.3558226 -0.16179575 4.28758728 0 0 Z " fill="#161610" transform="translate(579,479)"/>
<path d="M0 0 C0.33 0.66 0.66 1.32 1 2 C2.32 1.34 3.64 0.68 5 0 C3.66749209 3.5875213 2.169283 6.8364623 0 10 C-0.66 10 -1.32 10 -2 10 C-1.34 6.7 -0.68 3.4 0 0 Z " fill="#335646" transform="translate(253,287)"/>
<path d="M0 0 C1.39195915 4.17587745 -0.17676781 6.13474776 -2 10 C0.64 9.67 3.28 9.34 6 9 C2.55549263 11.29633824 0.06187717 11.54016485 -4 12 C-3.45660208 7.43545749 -2.20536179 4.0271824 0 0 Z " fill="#040603" transform="translate(550,198)"/>
<path d="M0 0 C3.35250701 0.57575664 4.93818629 1.59306263 7.25 4.0625 C8.03117188 4.88427734 8.03117188 4.88427734 8.828125 5.72265625 C9.21484375 6.14417969 9.6015625 6.56570313 10 7 C9.67 7.99 9.34 8.98 9 10 C8.51789063 9.4946875 8.03578125 8.989375 7.5390625 8.46875 C6.90742188 7.8190625 6.27578125 7.169375 5.625 6.5 C4.99851563 5.8503125 4.37203125 5.200625 3.7265625 4.53125 C2.13524093 2.77882569 2.13524093 2.77882569 0 3 C0 2.01 0 1.02 0 0 Z " fill="#151811" transform="translate(160,536)"/>
<path d="M0 0 C0.66 0 1.32 0 2 0 C0.35821735 4.77609498 -2.26546702 8.79382904 -5 13 C-5.67578125 11.296875 -5.67578125 11.296875 -6 9 C-4.85546875 6.640625 -4.85546875 6.640625 -3.1875 4.25 C-2.64480469 3.45078125 -2.10210938 2.6515625 -1.54296875 1.828125 C-1.03378906 1.22484375 -0.52460937 0.6215625 0 0 Z " fill="#121710" transform="translate(598,515)"/>
<path d="M0 0 C3 1 3 1 4.6875 4.375 C6 8 6 8 6 11 C5.34 11 4.68 11 4 11 C3.32591692 9.73308493 2.66099503 8.46129251 2 7.1875 C1.62875 6.47980469 1.2575 5.77210938 0.875 5.04296875 C0 3 0 3 0 0 Z " fill="#15150F" transform="translate(307,377)"/>
<path d="M0 0 C4.93867388 3.24541427 7.80262737 7.57981419 10 13 C9.67 13.66 9.34 14.32 9 15 C8.01 14.34 7.02 13.68 6 13 C5.87625 12.2575 5.7525 11.515 5.625 10.75 C4.97165998 7.87530392 4.32236553 6.97191177 2.4375 4.8125 C0 2 0 2 0 0 Z " fill="#040503" transform="translate(529,233)"/>
<path d="M0 0 C2.97 0.33 5.94 0.66 9 1 C6.87033995 3.12966005 5.95931796 3.47624662 3.125 4.1875 C2.44695312 4.36667969 1.76890625 4.54585937 1.0703125 4.73046875 C-1.22818556 5.02970718 -2.80550964 4.69377386 -5 4 C-3.02 3.34 -1.04 2.68 1 2 C0.67 1.34 0.34 0.68 0 0 Z " fill="#345A4A" transform="translate(265,212)"/>
<path d="M0 0 C2.475 0.495 2.475 0.495 5 1 C4.01 1.33 3.02 1.66 2 2 C2.44472656 2.91523438 2.88945312 3.83046875 3.34765625 4.7734375 C3.91355469 5.96195313 4.47945312 7.15046875 5.0625 8.375 C5.91521484 10.15003906 5.91521484 10.15003906 6.78515625 11.9609375 C7.18605469 12.96382812 7.58695313 13.96671875 8 15 C7.67 15.66 7.34 16.32 7 17 C6.0097347 15.29807615 5.03326794 13.58811989 4.0625 11.875 C3.51722656 10.92367187 2.97195312 9.97234375 2.41015625 8.9921875 C0.97051473 5.93743568 0.39132616 3.33865613 0 0 Z " fill="#355E4C" transform="translate(130,147)"/>
<path d="M0 0 C3.23475448 1.61737724 4.70572021 2.47629223 7 5 C5.68 5.33 4.36 5.66 3 6 C2.67 7.32 2.34 8.64 2 10 C1.34 6.7 0.68 3.4 0 0 Z " fill="#335949" transform="translate(233,81)"/>
<path d="M0 0 C3.6575515 1.21918383 4.42328869 2.84071298 6.21484375 6.14453125 C7.217815 8.51473693 7.30800164 10.45898646 7 13 C0 4.25 0 4.25 0 0 Z " fill="#1A1E0E" transform="translate(215,570)"/>
<path d="M0 0 C1.875 1.625 1.875 1.625 3 3 C1 3 -1 3 -3 3 C-3 2.34 -3 1.68 -3 1 C-5.64 0.67 -8.28 0.34 -11 0 C-11 -0.33 -11 -0.66 -11 -1 C-6.70414377 -2.26348713 -4.08804005 -1.77740872 0 0 Z " fill="#131B10" transform="translate(653,476)"/>
<path d="M0 0 C0 3 0 3 -1 6 C0.32 5.67 1.64 5.34 3 5 C0.47043472 8.0916909 -2.22454612 8.90931332 -6 10 C-4.6302836 6.00499382 -2.74277578 3.19990508 0 0 Z " fill="#335848" transform="translate(71,365)"/>
<path d="M0 0 C1.77226453 0.28284018 3.542788 0.57660498 5.3125 0.875 C6.29863281 1.03742188 7.28476562 1.19984375 8.30078125 1.3671875 C11 2 11 2 14 4 C9.48281619 5.36884358 6.41225737 4.47075246 2 3 C2 2.34 2 1.68 2 1 C1.34 0.67 0.68 0.34 0 0 Z " fill="#181D16" transform="translate(614,215)"/>
<path d="M0 0 C2.16796875 0.36328125 2.16796875 0.36328125 4 1 C3.09515208 2.15518918 2.1755794 3.29885406 1.25 4.4375 C0.73953125 5.07558594 0.2290625 5.71367188 -0.296875 6.37109375 C-2.19667629 8.18810554 -3.43586908 8.60423197 -6 9 C-5.52753358 4.74780225 -3.22727623 2.62685275 0 0 Z " fill="#191C16" transform="translate(503,608)"/>
<path d="M0 0 C0 0.33 0 0.66 0 1 C-1.5778125 1.2165625 -1.5778125 1.2165625 -3.1875 1.4375 C-6.82934366 1.92163439 -6.82934366 1.92163439 -9.6875 2.625 C-12.13927953 3.02258587 -13.6639741 2.7786753 -16 2 C-16 1.67 -16 1.34 -16 1 C-10.10106757 -0.79074734 -6.06820868 -1.08360869 0 0 Z " fill="#161913" transform="translate(72,390)"/>
<path d="M0 0 C4.55015893 1.51671964 6.50057264 5.16891053 9 9 C4.74100059 8.18096165 2.82480548 6.2956064 0 3 C0 2.01 0 1.02 0 0 Z " fill="#151A12" transform="translate(412,95)"/>
<path d="M0 0 C1.9453125 0.2421875 1.9453125 0.2421875 4.125 0.875 C4.84945313 1.07867188 5.57390625 1.28234375 6.3203125 1.4921875 C6.87460937 1.65976562 7.42890625 1.82734375 8 2 C8 2.99 8 3.98 8 5 C4.44219804 4.39009109 1.3171411 3.4216319 -2 2 C-1.34 1.34 -0.68 0.68 0 0 Z " fill="#171712" transform="translate(341,658)"/>
<path d="M0 0 C2.64 0 5.28 0 8 0 C6.8141763 3.37503669 5.72426311 5.64722731 3 8 C2.34 7.67 1.68 7.34 1 7 C1.495 6.38125 1.99 5.7625 2.5 5.125 C4.19222773 3.16119096 4.19222773 3.16119096 4 1 C2.68 0.67 1.36 0.34 0 0 Z " fill="#262923" transform="translate(111,456)"/>
<path d="M0 0 C3 1 3 1 4.16796875 3.06640625 C4.50441406 3.89011719 4.84085938 4.71382812 5.1875 5.5625 C5.53167969 6.38878906 5.87585938 7.21507812 6.23046875 8.06640625 C6.48441406 8.70449219 6.73835937 9.34257813 7 10 C6.01 10.33 5.02 10.66 4 11 C3.67 9.02 3.34 7.04 3 5 C2.34 5 1.68 5 1 5 C0.67 3.35 0.34 1.7 0 0 Z " fill="#1D1B16" transform="translate(225,559)"/>
<path d="M0 0 C1.65 0.33 3.3 0.66 5 1 C1.73386305 2.91302307 -0.99445248 3.35674661 -4.75 3.625 C-5.73484375 3.69976563 -6.7196875 3.77453125 -7.734375 3.8515625 C-8.48203125 3.90054688 -9.2296875 3.94953125 -10 4 C-10 3.34 -10 2.68 -10 2 C-6.30581799 0.768606 -3.7943739 1.35567236 0 2 C0 1.34 0 0.68 0 0 Z " fill="#22291D" transform="translate(546,560)"/>
<path d="M0 0 C3.76165664 0.50833198 5.50035938 1.1594993 8 4 C8.99 4.66 9.98 5.32 11 6 C4.08571429 5.05714286 4.08571429 5.05714286 1 3 C0.67 2.01 0.34 1.02 0 0 Z " fill="#141610" transform="translate(188,542)"/>
<path d="M0 0 C0.99 0 1.98 0 3 0 C3 2.31 3 4.62 3 7 C2.01 7.33 1.02 7.66 0 8 C0 5.36 0 2.72 0 0 Z " fill="#212018" transform="translate(562,497)"/>
<path d="M0 0 C4.47238653 1.41807378 8.71146306 3.11304374 13 5 C9.57056481 6.18771723 7.62215325 5.80226223 4.25 4.5625 C3.45078125 4.27503906 2.6515625 3.98757812 1.828125 3.69140625 C1.22484375 3.46324219 0.6215625 3.23507813 0 3 C0 2.01 0 1.02 0 0 Z " fill="#345848" transform="translate(54,250)"/>
<path d="M0 0 C-0.33 2.97 -0.66 5.94 -1 9 C-1.99 9 -2.98 9 -4 9 C-3.4140625 2.84765625 -3.4140625 2.84765625 -3 1 C-1 0 -1 0 0 0 Z " fill="#161711" transform="translate(543,484)"/>
<path d="M0 0 C0.66 0 1.32 0 2 0 C2.33 2.97 2.66 5.94 3 9 C2.01 9.495 2.01 9.495 1 10 C0 3.375 0 3.375 0 0 Z " fill="#181712" transform="translate(225,424)"/>
<path d="M0 0 C0.66 0.33 1.32 0.66 2 1 C0.875 3.4375 0.875 3.4375 -1 6 C-4.1875 6.8125 -4.1875 6.8125 -7 7 C-4.66666667 4.66666667 -2.33333333 2.33333333 0 0 Z " fill="#ECDFC7" transform="translate(428,388)"/>
<path d="M0 0 C1.44096586 0.42594588 2.87768712 0.86626633 4.3125 1.3125 C5.11300781 1.55613281 5.91351563 1.79976562 6.73828125 2.05078125 C9.09964573 3.04182023 10.33879993 4.08074943 12 6 C10.68 6 9.36 6 8 6 C8 5.34 8 4.68 8 4 C5.36 3.67 2.72 3.34 0 3 C0 2.01 0 1.02 0 0 Z " fill="#131811" transform="translate(40,229)"/>
<path d="M0 0 C4.29 0.66 8.58 1.32 13 2 C13 2.33 13 2.66 13 3 C11.54263913 3.19491452 10.08405407 3.38069358 8.625 3.5625 C7.81289062 3.66691406 7.00078125 3.77132812 6.1640625 3.87890625 C4 4 4 4 2 3 C2 2.34 2 1.68 2 1 C1.34 0.67 0.68 0.34 0 0 Z " fill="#1B2013" transform="translate(132,133)"/>
<path d="M0 0 C1.98 0 3.96 0 6 0 C6 0.66 6 1.32 6 2 C7.45833358 3.62514468 7.45833358 3.62514468 9 5 C3.48387097 4.38709677 3.48387097 4.38709677 1.125 2.5 C0 1 0 1 0 0 Z " fill="#151914" transform="translate(380,73)"/>
<path d="M0 0 C0.99 0 1.98 0 3 0 C2.67 2.97 2.34 5.94 2 9 C2.66 9.33 3.32 9.66 4 10 C3.01 10 2.02 10 1 10 C-1.42857143 3.71428571 -1.42857143 3.71428571 0 0 Z " fill="#151610" transform="translate(500,419)"/>
<path d="M0 0 C0.99 0 1.98 0 3 0 C3 4.29 3 8.58 3 13 C2.67 13 2.34 13 2 13 C1.67 10.36 1.34 7.72 1 5 C0.67 5 0.34 5 0 5 C0 3.35 0 1.7 0 0 Z " fill="#14170F" transform="translate(534,417)"/>
<path d="M0 0 C0.99 0.33 1.98 0.66 3 1 C4.6875 4.5625 4.6875 4.5625 6 8 C5.34 8.66 4.68 9.32 4 10 C3.32845067 8.71086513 2.66291141 7.41859796 2 6.125 C1.62875 5.40570313 1.2575 4.68640625 0.875 3.9453125 C0 2 0 2 0 0 Z " fill="#161913" transform="translate(116,158)"/>
<path d="M0 0 C0.66 0.33 1.32 0.66 2 1 C0.84414715 4.91211733 -0.35534962 7.8745041 -3 11 C-2.44894091 7.0507432 -1.61064629 3.65079826 0 0 Z " fill="#151810" transform="translate(534,563)"/>
<path d="M0 0 C0 2.97 0 5.94 0 9 C-0.99 9 -1.98 9 -3 9 C-3 6.36 -3 3.72 -3 1 C-1 0 -1 0 0 0 Z " fill="#1A1B14" transform="translate(202,440)"/>
<path d="M0 0 C0.99 0 1.98 0 3 0 C3.268125 0.763125 3.53625 1.52625 3.8125 2.3125 C4.94424112 4.87380884 5.91223401 6.19692938 8 8 C5.125 7.375 5.125 7.375 2 6 C0.625 2.875 0.625 2.875 0 0 Z " fill="#1A1F14" transform="translate(653,378)"/>
<path d="M0 0 C1.32 0.66 2.64 1.32 4 2 C3.01 2.33 2.02 2.66 1 3 C1 3.66 1 4.32 1 5 C-0.875 6.0625 -0.875 6.0625 -3 7 C-3.66 6.67 -4.32 6.34 -5 6 C-4 4 -4 4 -1 2 C-0.67 1.34 -0.34 0.68 0 0 Z " fill="#1A2018" transform="translate(93,325)"/>
<path d="M0 0 C0.33 0 0.66 0 1 0 C1.33 4.95 1.66 9.9 2 15 C1.01 15.66 0.02 16.32 -1 17 C-0.67 11.39 -0.34 5.78 0 0 Z " fill="#396351" transform="translate(438,207)"/>
<path d="M0 0 C4.95 0.99 4.95 0.99 10 2 C10 2.33 10 2.66 10 3 C9.195625 3.12375 8.39125 3.2475 7.5625 3.375 C6.2940625 3.684375 6.2940625 3.684375 5 4 C4.67 4.66 4.34 5.32 4 6 C2.68 4.02 1.36 2.04 0 0 Z " fill="#375E4D" transform="translate(329,74)"/>
<path d="M0 0 C2.64 0 5.28 0 8 0 C8.66 1.65 9.32 3.3 10 5 C9.01 5.495 9.01 5.495 8 6 C7.690625 5.0409375 7.690625 5.0409375 7.375 4.0625 C6.10461791 1.65074923 6.10461791 1.65074923 2.875 1.25 C1.92625 1.1675 0.9775 1.085 0 1 C0 0.67 0 0.34 0 0 Z " fill="#242720" transform="translate(206,564)"/>
<path d="M0 0 C2.97 0.33 5.94 0.66 9 1 C9 1.66 9 2.32 9 3 C6.03 2.67 3.06 2.34 0 2 C0 1.34 0 0.68 0 0 Z " fill="#16180C" transform="translate(196,561)"/>
<path d="M0 0 C-1.28813342 0.83878455 -2.58063256 1.67086783 -3.875 2.5 C-4.59429688 2.9640625 -5.31359375 3.428125 -6.0546875 3.90625 C-8 5 -8 5 -10 5 C-9 2 -9 2 -6.125 0.25 C-3 -1 -3 -1 0 0 Z " fill="#171A13" transform="translate(567,554)"/>
<path d="M0 0 C0 0.66 0 1.32 0 2 C-6.93 1.505 -6.93 1.505 -14 1 C-14 0.67 -14 0.34 -14 0 C-12.41773035 -0.19627391 -10.83410729 -0.38165538 -9.25 -0.5625 C-8.36828125 -0.66691406 -7.4865625 -0.77132813 -6.578125 -0.87890625 C-4.11567549 -0.99456676 -2.33461936 -0.73638695 0 0 Z " fill="#1A1E16" transform="translate(640,473)"/>
<path d="M0 0 C0.66 0 1.32 0 2 0 C2 0.99 2 1.98 2 3 C3.98 3.66 5.96 4.32 8 5 C7.01 5.66 6.02 6.32 5 7 C2.5 5.75 2.5 5.75 0 4 C0 2.68 0 1.36 0 0 Z " fill="#131A0E" transform="translate(662,385)"/>
<path d="M0 0 C0.99 0.33 1.98 0.66 3 1 C-0.465 3.97 -0.465 3.97 -4 7 C-4 4 -4 4 -2 1.8125 C-1.34 1.214375 -0.68 0.61625 0 0 Z " fill="#171C17" transform="translate(691,352)"/>
<path d="M0 0 C1.65 0 3.3 0 5 0 C5.33 0.66 5.66 1.32 6 2 C4.35 2 2.7 2 1 2 C1.33 3.65 1.66 5.3 2 7 C0.4375 5.1875 0.4375 5.1875 -1 3 C-0.67 2.01 -0.34 1.02 0 0 Z " fill="#325747" transform="translate(451,244)"/>
<path d="M0 0 C5.875 4.625 5.875 4.625 7 8 C4.13792848 6.71700242 1.9754912 5.469364 0 3 C0 2.01 0 1.02 0 0 Z " fill="#121B11" transform="translate(489,88)"/>
<path d="M0 0 C-1.45255699 3.82946843 -3.42895561 5.12050295 -7 7 C-7 6.01 -7 5.02 -7 4 C-2.65714286 0 -2.65714286 0 0 0 Z " fill="#161A11" transform="translate(473,637)"/>
<path d="M0 0 C0.66 0.33 1.32 0.66 2 1 C-0.13464912 3.45484649 -1.70720291 4.68134222 -5 5 C-5.66 4.34 -6.32 3.68 -7 3 C-4.69631264 1.93347808 -2.35981813 0.93578995 0 0 Z " fill="#131711" transform="translate(105,467)"/>
<path d="M0 0 C2.31 0.33 4.62 0.66 7 1 C7 1.99 7 2.98 7 4 C4.97954558 3.39816251 2.97888961 2.72693904 1 2 C0.67 1.34 0.34 0.68 0 0 Z " fill="#151510" transform="translate(217,430)"/>
<path d="M0 0 C0 0.66 0 1.32 0 2 C0.99 2.33 1.98 2.66 3 3 C-1.02992782 2.44687265 -5.02022924 1.8441938 -9 1 C-9 0.67 -9 0.34 -9 0 C-5.62182575 -0.84454356 -3.32534757 -1.10844919 0 0 Z " fill="#1D2419" transform="translate(100,391)"/>
<path d="M0 0 C5.75 1.75 5.75 1.75 8 4 C5 5 5 5 1.8125 3.5625 C0.884375 3.046875 -0.04375 2.53125 -1 2 C-0.67 1.34 -0.34 0.68 0 0 Z " fill="#131911" transform="translate(52,235)"/>
<path d="M0 0 C-1.28965176 1.37562854 -2.62689293 2.70766393 -4 4 C-4.66 4 -5.32 4 -6 4 C-6 3.34 -6 2.68 -6 2 C-6.66 1.67 -7.32 1.34 -8 1 C-2.25 -1.125 -2.25 -1.125 0 0 Z " fill="#151911" transform="translate(181,131)"/>
<path d="M0 0 C3.37503669 1.1858237 5.64722731 2.27573689 8 5 C6.35 5 4.7 5 3 5 C3 4.34 3 3.68 3 3 C2.34 3 1.68 3 1 3 C0.67 2.01 0.34 1.02 0 0 Z " fill="#141510" transform="translate(285,625)"/>
<path d="M0 0 C-0.33 0.99 -0.66 1.98 -1 3 C-3.06640625 3.73046875 -3.06640625 3.73046875 -5.5625 4.1875 C-6.38878906 4.34605469 -7.21507812 4.50460937 -8.06640625 4.66796875 C-9.02353516 4.83232422 -9.02353516 4.83232422 -10 5 C-10 4.34 -10 3.68 -10 3 C-9.05125 2.690625 -8.1025 2.38125 -7.125 2.0625 C-1.05882353 0 -1.05882353 0 0 0 Z " fill="#141B11" transform="translate(618,506)"/>
<path d="M0 0 C0.66 0.99 1.32 1.98 2 3 C0.02 5.97 0.02 5.97 -2 9 C-2.66 8.67 -3.32 8.34 -4 8 C-4 7.34 -4 6.68 -4 6 C-3 5 -2 4 -1 3 C-0.67 2.01 -0.34 1.02 0 0 Z " fill="#171712" transform="translate(561,472)"/>
<path d="M0 0 C0.99 0.99 1.98 1.98 3 3 C2.67 3.66 2.34 4.32 2 5 C2.66 5 3.32 5 4 5 C3.67 5.66 3.34 6.32 3 7 C2.01 6.67 1.02 6.34 0 6 C0 5.01 0 4.02 0 3 C-0.99 2.34 -1.98 1.68 -3 1 C-2.01 0.67 -1.02 0.34 0 0 Z " fill="#1B1D14" transform="translate(60,425)"/>
<path d="M0 0 C2.31 0.33 4.62 0.66 7 1 C7 1.66 7 2.32 7 3 C4.36 3 1.72 3 -1 3 C-0.67 2.01 -0.34 1.02 0 0 Z " fill="#355B4B" transform="translate(331,221)"/>
<path d="M0 0 C-0.66 1.32 -1.32 2.64 -2 4 C-4.4375 3.625 -4.4375 3.625 -7 3 C-7.33 2.34 -7.66 1.68 -8 1 C-5.07175348 0.02391783 -3.04386724 -0.08226668 0 0 Z " fill="#365D4D" transform="translate(138,220)"/>
<path d="M0 0 C3.96 0 7.92 0 12 0 C12 0.33 12 0.66 12 1 C8.04 1 4.08 1 0 1 C0 0.67 0 0.34 0 0 Z " fill="#142214" transform="translate(312,57)"/>
<path d="M0 0 C0.33 0 0.66 0 1 0 C1 2.31 1 4.62 1 7 C0.67 7 0.34 7 0 7 C0 4.69 0 2.38 0 0 Z " fill="#172317" transform="translate(265,641)"/>
<path d="M0 0 C0.66 0 1.32 0 2 0 C1.67 1.32 1.34 2.64 1 4 C0.67 2.68 0.34 1.36 0 0 Z " fill="#151515" transform="translate(40,385)"/>
<path d="M0 0 C1.98 0 3.96 0 6 0 C6 0.33 6 0.66 6 1 C4.02 1 2.04 1 0 1 C0 0.67 0 0.34 0 0 Z " fill="#000000" transform="translate(305,57)"/>
<path d="M0 0 C0.99 0.33 1.98 0.66 3 1 C2.01 1.33 1.02 1.66 0 2 C0 1.34 0 0.68 0 0 Z " fill="#001100" transform="translate(72,337)"/>
<path d="M0 0 C1.32 0.33 2.64 0.66 4 1 C3.01 1.495 3.01 1.495 2 2 C1.34 1.34 0.68 0.68 0 0 Z " fill="#000000" transform="translate(668,313)"/>
<path d="M0 0 C0.99 0.495 0.99 0.495 2 1 C2 1.66 2 2.32 2 3 C1.34 3 0.68 3 0 3 C0 2.01 0 1.02 0 0 Z " fill="#0A0A0A" transform="translate(113,156)"/>
<path d="M0 0 C1.485 0.99 1.485 0.99 3 2 C1.68 1.67 0.36 1.34 -1 1 C-0.67 0.67 -0.34 0.34 0 0 Z " fill="#000000" transform="translate(283,81)"/>
<path d="M0 0 C4 1 4 1 4 1 Z " fill="#151500" transform="translate(352,684)"/>
<path d="M0 0 C0.99 0.495 0.99 0.495 2 1 C1.67 1.66 1.34 2.32 1 3 C0.67 2.01 0.34 1.02 0 0 Z " fill="#151500" transform="translate(225,590)"/>
<path d="M0 0 C0.99 1.485 0.99 1.485 2 3 C1.34 3 0.68 3 0 3 C0 2.01 0 1.02 0 0 Z " fill="#000000" transform="translate(70,310)"/>
<path d="M0 0 C0.66 0.66 1.32 1.32 2 2 C1.01 2.495 1.01 2.495 0 3 C0 2.01 0 1.02 0 0 Z " fill="#102510" transform="translate(48,281)"/>
<path d="M0 0 C4 1 4 1 4 1 Z " fill="#103A10" transform="translate(71,241)"/>
<path d="M0 0 C1 4 1 4 1 4 Z " fill="#000000" transform="translate(33,235)"/>
<path d="M0 0 C0.99 0.33 1.98 0.66 3 1 C2.01 1 1.02 1 0 1 C0 0.67 0 0.34 0 0 Z " fill="#000000" transform="translate(41,227)"/>
<path d="M0 0 C4 1 4 1 4 1 Z " fill="#001500" transform="translate(607,212)"/>
<path d="M0 0 C1 4 1 4 1 4 Z " fill="#001500" transform="translate(529,106)"/>
<path d="M0 0 C3 1 3 1 3 1 Z " fill="#1C1C00" transform="translate(391,686)"/>
<path d="M0 0 C0.66 0 1.32 0 2 0 C1.67 0.66 1.34 1.32 1 2 C0.67 1.34 0.34 0.68 0 0 Z " fill="#000000" transform="translate(362,686)"/>
<path d="M0 0 C3 1 3 1 3 1 Z " fill="#000000" transform="translate(197,564)"/>
<path d="M0 0 C0.66 0.66 1.32 1.32 2 2 C1.34 2 0.68 2 0 2 C0 1.34 0 0.68 0 0 Z " fill="#000000" transform="translate(88,475)"/>
<path d="M0 0 C0.99 0.495 0.99 0.495 2 1 C1.01 1.495 1.01 1.495 0 2 C0 1.34 0 0.68 0 0 Z " fill="#000000" transform="translate(113,459)"/>
<path d="M0 0 C0.33 0.66 0.66 1.32 1 2 C0.34 1.67 -0.32 1.34 -1 1 C-0.67 0.67 -0.34 0.34 0 0 Z " fill="#0E2A0E" transform="translate(81,410)"/>
<path d="M0 0 C3 1 3 1 3 1 Z " fill="#000000" transform="translate(87,409)"/>
<path d="M0 0 C3 1 3 1 3 1 Z " fill="#001C00" transform="translate(68,392)"/>
<path d="M0 0 C3 1 3 1 3 1 Z " fill="#000000" transform="translate(676,317)"/>
<path d="M0 0 C3 1 3 1 3 1 Z " fill="#001C00" transform="translate(673,269)"/>
<path d="M0 0 C3 1 3 1 3 1 Z " fill="#000000" transform="translate(83,243)"/>
<path d="M0 0 C0.33 0.66 0.66 1.32 1 2 C0.34 1.67 -0.32 1.34 -1 1 C-0.67 0.67 -0.34 0.34 0 0 Z " fill="#000000" transform="translate(108,241)"/>
<path d="" fill="#1C1C00" transform="translate(0,0)"/>
<path d="M0 0 C3 1 3 1 3 1 Z " fill="#000000" transform="translate(128,204)"/>
<path d="" fill="#000000" transform="translate(0,0)"/>
<path d="M0 0 C3 1 3 1 3 1 Z " fill="#001C00" transform="translate(173,130)"/>
<path d="M0 0 C3 1 3 1 3 1 Z " fill="#262626" transform="translate(176,129)"/>
<path d="M0 0 C3 1 3 1 3 1 Z " fill="#2A472A" transform="translate(126,129)"/>
<path d="M0 0 C3 1 3 1 3 1 Z " fill="#001C00" transform="translate(191,123)"/>
<path d="M0 0 C3 1 3 1 3 1 Z " fill="#2A2A2A" transform="translate(196,121)"/>
<path d="M0 0 C3 1 3 1 3 1 Z " fill="#111111" transform="translate(224,117)"/>
<path d="" fill="#001C00" transform="translate(0,0)"/>
<path d="M0 0 C0.66 0.66 1.32 1.32 2 2 C1.34 2 0.68 2 0 2 C0 1.34 0 0.68 0 0 Z " fill="#153100" transform="translate(320,90)"/>
<path d="M0 0 C0.33 0.66 0.66 1.32 1 2 C0.34 1.67 -0.32 1.34 -1 1 C-0.67 0.67 -0.34 0.34 0 0 Z " fill="#000000" transform="translate(303,57)"/>
<path d="M0 0 C2 1 2 1 2 1 Z " fill="#202020" transform="translate(329,675)"/>
<path d="" fill="#000000" transform="translate(0,0)"/>
<path d="M0 0 C2 1 2 1 2 1 Z " fill="#2A2A00" transform="translate(304,660)"/>
<path d="" fill="#000000" transform="translate(0,0)"/>
<path d="" fill="#000000" transform="translate(0,0)"/>
<path d="M0 0 C2 1 2 1 2 1 Z " fill="#000000" transform="translate(208,566)"/>
<path d="M0 0 C2 1 2 1 2 1 Z " fill="#000000" transform="translate(140,511)"/>
<path d="M0 0 C2 1 2 1 2 1 Z " fill="#000000" transform="translate(111,494)"/>
<path d="" fill="#005500" transform="translate(0,0)"/>
<path d="M0 0 C2 1 2 1 2 1 Z " fill="#000000" transform="translate(105,465)"/>
<path d="M0 0 C2 1 2 1 2 1 Z " fill="#000000" transform="translate(65,439)"/>
<path d="" fill="#000000" transform="translate(0,0)"/>
<path d="M0 0 C2 1 2 1 2 1 Z " fill="#000000" transform="translate(84,410)"/>
<path d="" fill="#202020" transform="translate(0,0)"/>
<path d="M0 0 C2 1 2 1 2 1 Z " fill="#000000" transform="translate(644,264)"/>
<path d="" fill="#000000" transform="translate(0,0)"/>
<path d="M0 0 C2 1 2 1 2 1 Z " fill="#000000" transform="translate(99,243)"/>
<path d="M0 0 C2 1 2 1 2 1 Z " fill="#000000" transform="translate(79,242)"/>
<path d="M0 0 C2 1 2 1 2 1 Z " fill="#000000" transform="translate(75,242)"/>
<path d="M0 0 C2 1 2 1 2 1 Z " fill="#002A00" transform="translate(112,241)"/>
<path d="" fill="#000000" transform="translate(0,0)"/>
<path d="M0 0 C2 1 2 1 2 1 Z " fill="#000000" transform="translate(54,234)"/>
<path d="M0 0 C2 1 2 1 2 1 Z " fill="#000000" transform="translate(628,217)"/>
<path d="M0 0 C2 1 2 1 2 1 Z " fill="#000000" transform="translate(117,209)"/>
<path d="" fill="#202020" transform="translate(0,0)"/>
<path d="" fill="#000000" transform="translate(0,0)"/>
<path d="M0 0 C2 1 2 1 2 1 Z " fill="#000000" transform="translate(107,143)"/>
<path d="" fill="#002A00" transform="translate(0,0)"/>
<path d="M0 0 C2 1 2 1 2 1 Z " fill="#000000" transform="translate(139,133)"/>
<path d="M0 0 C2 1 2 1 2 1 Z " fill="#000000" transform="translate(167,132)"/>
<path d="" fill="#000000" transform="translate(0,0)"/>
<path d="" fill="#151515" transform="translate(0,0)"/>
<path d="M0 0 C2 1 2 1 2 1 Z " fill="#000000" transform="translate(169,129)"/>
<path d="M0 0 C2 1 2 1 2 1 Z " fill="#000000" transform="translate(192,121)"/>
<path d="" fill="#000000" transform="translate(0,0)"/>
<path d="" fill="#000000" transform="translate(0,0)"/>
<path d="" fill="#000000" transform="translate(0,0)"/>
<path d="" fill="#000000" transform="translate(0,0)"/>
<path d="" fill="#000000" transform="translate(0,0)"/>
<path d="" fill="#000000" transform="translate(0,0)"/>
<path d="" fill="#000000" transform="translate(0,0)"/>
<path d="" fill="#000000" transform="translate(0,0)"/>
<path d="" fill="#000000" transform="translate(0,0)"/>
<path d="" fill="#000000" transform="translate(0,0)"/>
<path d="" fill="#000000" transform="translate(0,0)"/>
<path d="" fill="#000000" transform="translate(0,0)"/>
<path d="" fill="#000000" transform="translate(0,0)"/>
<path d="" fill="#000000" transform="translate(0,0)"/>
<path d="" fill="#555500" transform="translate(0,0)"/>
<path d="" fill="#000000" transform="translate(0,0)"/>
<path d="" fill="#555500" transform="translate(0,0)"/>
<path d="" fill="#000000" transform="translate(0,0)"/>
<path d="" fill="#000000" transform="translate(0,0)"/>
<path d="" fill="#000000" transform="translate(0,0)"/>
<path d="" fill="#000000" transform="translate(0,0)"/>
<path d="" fill="#000000" transform="translate(0,0)"/>
<path d="" fill="#000000" transform="translate(0,0)"/>
<path d="" fill="#000000" transform="translate(0,0)"/>
<path d="" fill="#000000" transform="translate(0,0)"/>
<path d="" fill="#000000" transform="translate(0,0)"/>
<path d="" fill="#555500" transform="translate(0,0)"/>
<path d="" fill="#000000" transform="translate(0,0)"/>
<path d="" fill="#000000" transform="translate(0,0)"/>
<path d="" fill="#000000" transform="translate(0,0)"/>
<path d="" fill="#000000" transform="translate(0,0)"/>
<path d="" fill="#000000" transform="translate(0,0)"/>
<path d="" fill="#000000" transform="translate(0,0)"/>
<path d="" fill="#000000" transform="translate(0,0)"/>
<path d="" fill="#000000" transform="translate(0,0)"/>
<path d="" fill="#000000" transform="translate(0,0)"/>
<path d="" fill="#000000" transform="translate(0,0)"/>
<path d="" fill="#000000" transform="translate(0,0)"/>
<path d="" fill="#000000" transform="translate(0,0)"/>
<path d="" fill="#000000" transform="translate(0,0)"/>
<path d="" fill="#000000" transform="translate(0,0)"/>
<path d="" fill="#000000" transform="translate(0,0)"/>
<path d="" fill="#000000" transform="translate(0,0)"/>
<path d="" fill="#000000" transform="translate(0,0)"/>
<path d="" fill="#000000" transform="translate(0,0)"/>
<path d="" fill="#000000" transform="translate(0,0)"/>
<path d="" fill="#000000" transform="translate(0,0)"/>
<path d="" fill="#000000" transform="translate(0,0)"/>
<path d="" fill="#000000" transform="translate(0,0)"/>
<path d="" fill="#000000" transform="translate(0,0)"/>
<path d="" fill="#000000" transform="translate(0,0)"/>
<path d="" fill="#000000" transform="translate(0,0)"/>
<path d="" fill="#000000" transform="translate(0,0)"/>
<path d="" fill="#000000" transform="translate(0,0)"/>
<path d="" fill="#000000" transform="translate(0,0)"/>
<path d="" fill="#000000" transform="translate(0,0)"/>
<path d="" fill="#000000" transform="translate(0,0)"/>
<path d="" fill="#000000" transform="translate(0,0)"/>
<path d="" fill="#000000" transform="translate(0,0)"/>
<path d="" fill="#000000" transform="translate(0,0)"/>
<path d="" fill="#000000" transform="translate(0,0)"/>
<path d="" fill="#000000" transform="translate(0,0)"/>
<path d="" fill="#000000" transform="translate(0,0)"/>
<path d="" fill="#000000" transform="translate(0,0)"/>
<path d="" fill="#000000" transform="translate(0,0)"/>
<path d="" fill="#000000" transform="translate(0,0)"/>
<path d="" fill="#000000" transform="translate(0,0)"/>
<path d="" fill="#000000" transform="translate(0,0)"/>
<path d="" fill="#555500" transform="translate(0,0)"/>
<path d="" fill="#000000" transform="translate(0,0)"/>
<path d="" fill="#000000" transform="translate(0,0)"/>
<path d="" fill="#000000" transform="translate(0,0)"/>
<path d="" fill="#333333" transform="translate(0,0)"/>
<path d="" fill="#333333" transform="translate(0,0)"/>
<path d="" fill="#000000" transform="translate(0,0)"/>
<path d="" fill="#000000" transform="translate(0,0)"/>
<path d="" fill="#000000" transform="translate(0,0)"/>
<path d="" fill="#000000" transform="translate(0,0)"/>
<path d="" fill="#000000" transform="translate(0,0)"/>
<path d="" fill="#000000" transform="translate(0,0)"/>
<path d="" fill="#000000" transform="translate(0,0)"/>
<path d="" fill="#404040" transform="translate(0,0)"/>
<path d="" fill="#404040" transform="translate(0,0)"/>
<path d="" fill="#000000" transform="translate(0,0)"/>
<path d="" fill="#000000" transform="translate(0,0)"/>
<path d="" fill="#000000" transform="translate(0,0)"/>
<path d="" fill="#000000" transform="translate(0,0)"/>
<path d="" fill="#555500" transform="translate(0,0)"/>
<path d="" fill="#000000" transform="translate(0,0)"/>
<path d="" fill="#000000" transform="translate(0,0)"/>
<path d="" fill="#242424" transform="translate(0,0)"/>
<path d="" fill="#000000" transform="translate(0,0)"/>
<path d="" fill="#000000" transform="translate(0,0)"/>
<path d="" fill="#000000" transform="translate(0,0)"/>
<path d="" fill="#000000" transform="translate(0,0)"/>
<path d="" fill="#000000" transform="translate(0,0)"/>
<path d="" fill="#000000" transform="translate(0,0)"/>
<path d="" fill="#005500" transform="translate(0,0)"/>
<path d="" fill="#000000" transform="translate(0,0)"/>
<path d="" fill="#000000" transform="translate(0,0)"/>
<path d="" fill="#000000" transform="translate(0,0)"/>
<path d="" fill="#000000" transform="translate(0,0)"/>
<path d="" fill="#000000" transform="translate(0,0)"/>
<path d="" fill="#000000" transform="translate(0,0)"/>
<path d="" fill="#000000" transform="translate(0,0)"/>
<path d="" fill="#000000" transform="translate(0,0)"/>
<path d="" fill="#000000" transform="translate(0,0)"/>
<path d="" fill="#005500" transform="translate(0,0)"/>
<path d="" fill="#000000" transform="translate(0,0)"/>
<path d="" fill="#000000" transform="translate(0,0)"/>
<path d="" fill="#000000" transform="translate(0,0)"/>
<path d="" fill="#000000" transform="translate(0,0)"/>
<path d="" fill="#000000" transform="translate(0,0)"/>
<path d="" fill="#000000" transform="translate(0,0)"/>
<path d="" fill="#000000" transform="translate(0,0)"/>
<path d="" fill="#005500" transform="translate(0,0)"/>
<path d="" fill="#000000" transform="translate(0,0)"/>
<path d="" fill="#000000" transform="translate(0,0)"/>
<path d="" fill="#000000" transform="translate(0,0)"/>
<path d="" fill="#000000" transform="translate(0,0)"/>
<path d="" fill="#000000" transform="translate(0,0)"/>
<path d="" fill="#000000" transform="translate(0,0)"/>
<path d="" fill="#000000" transform="translate(0,0)"/>
<path d="" fill="#000000" transform="translate(0,0)"/>
<path d="" fill="#404040" transform="translate(0,0)"/>
<path d="" fill="#000000" transform="translate(0,0)"/>
<path d="" fill="#005500" transform="translate(0,0)"/>
<path d="" fill="#000000" transform="translate(0,0)"/>
<path d="" fill="#000000" transform="translate(0,0)"/>
<path d="" fill="#000000" transform="translate(0,0)"/>
<path d="" fill="#000000" transform="translate(0,0)"/>
<path d="" fill="#000000" transform="translate(0,0)"/>
<path d="" fill="#000000" transform="translate(0,0)"/>
<path d="" fill="#000000" transform="translate(0,0)"/>
<path d="" fill="#000000" transform="translate(0,0)"/>
<path d="" fill="#000000" transform="translate(0,0)"/>
<path d="" fill="#404040" transform="translate(0,0)"/>
<path d="" fill="#000000" transform="translate(0,0)"/>
<path d="" fill="#000000" transform="translate(0,0)"/>
<path d="" fill="#000000" transform="translate(0,0)"/>
<path d="" fill="#000000" transform="translate(0,0)"/>
<path d="" fill="#000000" transform="translate(0,0)"/>
<path d="" fill="#000000" transform="translate(0,0)"/>
<path d="" fill="#000000" transform="translate(0,0)"/>
<path d="" fill="#000000" transform="translate(0,0)"/>
<path d="" fill="#000000" transform="translate(0,0)"/>
<path d="" fill="#000000" transform="translate(0,0)"/>
<path d="" fill="#000000" transform="translate(0,0)"/>
<path d="" fill="#000000" transform="translate(0,0)"/>
<path d="" fill="#000000" transform="translate(0,0)"/>
<path d="" fill="#000000" transform="translate(0,0)"/>
<path d="" fill="#2B2B2B" transform="translate(0,0)"/>
<path d="" fill="#005500" transform="translate(0,0)"/>
<path d="" fill="#005500" transform="translate(0,0)"/>
<path d="" fill="#000000" transform="translate(0,0)"/>
<path d="" fill="#000000" transform="translate(0,0)"/>
<path d="" fill="#000000" transform="translate(0,0)"/>
<path d="" fill="#000000" transform="translate(0,0)"/>
<path d="" fill="#005500" transform="translate(0,0)"/>
<path d="" fill="#000000" transform="translate(0,0)"/>
<path d="" fill="#005500" transform="translate(0,0)"/>
<path d="" fill="#000000" transform="translate(0,0)"/>
<path d="" fill="#000000" transform="translate(0,0)"/>
<path d="" fill="#000000" transform="translate(0,0)"/>
<path d="" fill="#000000" transform="translate(0,0)"/>
<path d="" fill="#000000" transform="translate(0,0)"/>
<path d="" fill="#000000" transform="translate(0,0)"/>
<path d="" fill="#005500" transform="translate(0,0)"/>
<path d="" fill="#000000" transform="translate(0,0)"/>
<path d="" fill="#404040" transform="translate(0,0)"/>
<path d="" fill="#000000" transform="translate(0,0)"/>
<path d="" fill="#000000" transform="translate(0,0)"/>
<path d="" fill="#000000" transform="translate(0,0)"/>
<path d="" fill="#000000" transform="translate(0,0)"/>
<path d="" fill="#000000" transform="translate(0,0)"/>
<path d="" fill="#000000" transform="translate(0,0)"/>
<path d="" fill="#000000" transform="translate(0,0)"/>
<path d="" fill="#000000" transform="translate(0,0)"/>
<path d="" fill="#000000" transform="translate(0,0)"/>
<path d="" fill="#005500" transform="translate(0,0)"/>
<path d="" fill="#000000" transform="translate(0,0)"/>
<path d="" fill="#005500" transform="translate(0,0)"/>
<path d="" fill="#000000" transform="translate(0,0)"/>
<path d="" fill="#000000" transform="translate(0,0)"/>
<path d="" fill="#000000" transform="translate(0,0)"/>
<path d="" fill="#000000" transform="translate(0,0)"/>
<path d="" fill="#000000" transform="translate(0,0)"/>
<path d="" fill="#005500" transform="translate(0,0)"/>
<path d="" fill="#005500" transform="translate(0,0)"/>
<path d="" fill="#000000" transform="translate(0,0)"/>
<path d="" fill="#000000" transform="translate(0,0)"/>
<path d="" fill="#000000" transform="translate(0,0)"/>
<path d="" fill="#000000" transform="translate(0,0)"/>
<path d="" fill="#000000" transform="translate(0,0)"/>
<path d="" fill="#005500" transform="translate(0,0)"/>
<path d="" fill="#000000" transform="translate(0,0)"/>
<path d="" fill="#000000" transform="translate(0,0)"/>
<path d="" fill="#000000" transform="translate(0,0)"/>
<path d="" fill="#005500" transform="translate(0,0)"/>
<path d="" fill="#000000" transform="translate(0,0)"/>
<path d="" fill="#000000" transform="translate(0,0)"/>
<path d="" fill="#000000" transform="translate(0,0)"/>
<path d="" fill="#000000" transform="translate(0,0)"/>
<path d="" fill="#000000" transform="translate(0,0)"/>
<path d="" fill="#000000" transform="translate(0,0)"/>
<path d="" fill="#000000" transform="translate(0,0)"/>
<path d="" fill="#000000" transform="translate(0,0)"/>
<path d="" fill="#005500" transform="translate(0,0)"/>
<path d="" fill="#000000" transform="translate(0,0)"/>
<path d="" fill="#000000" transform="translate(0,0)"/>
<path d="" fill="#000000" transform="translate(0,0)"/>
<path d="" fill="#000000" transform="translate(0,0)"/>
<path d="" fill="#000000" transform="translate(0,0)"/>
<path d="" fill="#000000" transform="translate(0,0)"/>
<path d="" fill="#000000" transform="translate(0,0)"/>
<path d="" fill="#000000" transform="translate(0,0)"/>
<path d="" fill="#000000" transform="translate(0,0)"/>
<path d="" fill="#000000" transform="translate(0,0)"/>
<path d="" fill="#000000" transform="translate(0,0)"/>
<path d="" fill="#000000" transform="translate(0,0)"/>
<path d="" fill="#000000" transform="translate(0,0)"/>
<path d="" fill="#000000" transform="translate(0,0)"/>
<path d="" fill="#000000" transform="translate(0,0)"/>
<path d="" fill="#000000" transform="translate(0,0)"/>
<path d="" fill="#000000" transform="translate(0,0)"/>
<path d="" fill="#000000" transform="translate(0,0)"/>
<path d="" fill="#000000" transform="translate(0,0)"/>
<path d="" fill="#000000" transform="translate(0,0)"/>
<path d="" fill="#404040" transform="translate(0,0)"/>
<path d="" fill="#000000" transform="translate(0,0)"/>
<path d="" fill="#000000" transform="translate(0,0)"/>
<path d="" fill="#000000" transform="translate(0,0)"/>
<path d="" fill="#000000" transform="translate(0,0)"/>
<path d="" fill="#000000" transform="translate(0,0)"/>
<path d="" fill="#000000" transform="translate(0,0)"/>
<path d="" fill="#000000" transform="translate(0,0)"/>
<path d="" fill="#000000" transform="translate(0,0)"/>
<path d="" fill="#005500" transform="translate(0,0)"/>
<path d="" fill="#000000" transform="translate(0,0)"/>
<path d="" fill="#000000" transform="translate(0,0)"/>
<path d="" fill="#000000" transform="translate(0,0)"/>
<path d="" fill="#000000" transform="translate(0,0)"/>
<path d="" fill="#000000" transform="translate(0,0)"/>
<path d="" fill="#005500" transform="translate(0,0)"/>
<path d="" fill="#000000" transform="translate(0,0)"/>
<path d="" fill="#005500" transform="translate(0,0)"/>
<path d="" fill="#000000" transform="translate(0,0)"/>
<path d="" fill="#404040" transform="translate(0,0)"/>
<path d="" fill="#000000" transform="translate(0,0)"/>
<path d="" fill="#000000" transform="translate(0,0)"/>
<path d="" fill="#000000" transform="translate(0,0)"/>
<path d="" fill="#000000" transform="translate(0,0)"/>
<path d="" fill="#000000" transform="translate(0,0)"/>
<path d="" fill="#000000" transform="translate(0,0)"/>
<path d="" fill="#000000" transform="translate(0,0)"/>
<path d="" fill="#005500" transform="translate(0,0)"/>
<path d="" fill="#000000" transform="translate(0,0)"/>
<path d="" fill="#000000" transform="translate(0,0)"/>
<path d="" fill="#000000" transform="translate(0,0)"/>
<path d="" fill="#000000" transform="translate(0,0)"/>
<path d="" fill="#000000" transform="translate(0,0)"/>
<path d="" fill="#000000" transform="translate(0,0)"/>
<path d="" fill="#2B2B2B" transform="translate(0,0)"/>
<path d="" fill="#000000" transform="translate(0,0)"/>
<path d="" fill="#000000" transform="translate(0,0)"/>
<path d="" fill="#333333" transform="translate(0,0)"/>
<path d="" fill="#000000" transform="translate(0,0)"/>
<path d="" fill="#000000" transform="translate(0,0)"/>
<path d="" fill="#000000" transform="translate(0,0)"/>
<path d="" fill="#000000" transform="translate(0,0)"/>
<path d="" fill="#000000" transform="translate(0,0)"/>
<path d="" fill="#005500" transform="translate(0,0)"/>
<path d="" fill="#000000" transform="translate(0,0)"/>
<path d="" fill="#000000" transform="translate(0,0)"/>
<path d="" fill="#000000" transform="translate(0,0)"/>
<path d="" fill="#000000" transform="translate(0,0)"/>
<path d="" fill="#000000" transform="translate(0,0)"/>
<path d="" fill="#000000" transform="translate(0,0)"/>
<path d="" fill="#000000" transform="translate(0,0)"/>
<path d="" fill="#000000" transform="translate(0,0)"/>
<path d="" fill="#000000" transform="translate(0,0)"/>
<path d="" fill="#000000" transform="translate(0,0)"/>
<path d="" fill="#000000" transform="translate(0,0)"/>
</svg>
